<?xml version="1.0" encoding="UTF-8" standalone="no"?>
<!-- Created with Inkscape (http://www.inkscape.org/) -->
<svg
   xmlns:svg="http://www.w3.org/2000/svg"
   xmlns="http://www.w3.org/2000/svg"
   version="1.0"
   width="772.40552"
   height="128.51575"
   id="svg2443"
   xml:space="preserve"><defs
     id="defs2446"><clipPath
       id="clipPath2458"><path
         d="M 0,843.317 L 623.28,843.317 L 623.28,0.06 L 0,0.06 L 0,843.317 z"
         id="path2460" /></clipPath><clipPath
       id="clipPath2486"><path
         d="M 0,843.317 L 623.28,843.317 L 623.28,0.06 L 0,0.06 L 0,843.317 z"
         id="path2488" /></clipPath></defs><g
     transform="matrix(1.25,0,0,-1.25,-1.41381,1053.1854)"
     id="g2452"><path
       d="M 608.34312,746.73026 L 592.17051,746.73026 L 592.17051,762.3666 L 608.34312,762.3666 L 608.34312,746.73026 z M 44.936281,745.93997 C 67.821596,745.93997 79.149004,752.75618 79.149004,777.23147 C 79.149004,799.4488 70.714601,809.3791 48.055081,809.3791 C 38.115375,809.3791 31.303878,808.58882 26.331672,804.4116 L 26.331672,834.33421 L 10.257855,834.33421 L 10.257855,775.73557 C 10.257855,753.32537 20.084663,745.93997 44.936281,745.93997 z M 137.40425,785.79758 L 137.40425,788.69059 C 137.40425,795.7467 132.78485,797.24259 120.53074,797.24259 C 108.97283,797.24259 98.680307,794.82 93.364711,792.96189 L 93.364711,804.4116 C 102.61762,807.9867 113.13593,809.3791 121.09993,809.3791 C 138.66964,809.3791 153.58155,806.6084 153.58155,786.71488 L 153.58155,767.99267 C 153.58155,746.04346 135.67785,745.93997 121.09993,745.93997 C 99.146017,745.93997 88.401915,752.04116 88.401915,764.52577 C 88.401915,781.3052 99.146017,784.53689 137.40425,785.79758 z M 263.15823,771.59128 L 263.15823,746.73026 L 247.21142,746.73026 L 247.21142,834.33421 L 263.28994,834.33421 L 263.28994,785.44478 L 266.28173,785.44478 C 271.01874,785.44478 272.64635,786.26329 276.00035,789.60788 L 294.83546,808.11371 L 313.33658,808.11371 L 284.78285,778.84967 L 315.52867,746.73026 L 294.94365,746.73026 L 275.30885,767.74335 C 271.95014,771.23377 270.67063,771.59128 265.93834,771.59128 L 263.15823,771.59128 z M 182.60568,746.73026 L 182.60568,785.32718 C 182.60568,794.7071 185.83268,797.24259 199.47449,797.24259 C 213.4597,797.24259 216.5832,794.7071 216.5832,785.32718 L 216.5832,746.73026 L 232.64291,746.73026 L 232.64291,785.92459 C 232.64291,803.372 219.93721,809.1486 202.36749,809.1486 L 196.93899,809.1486 C 179.24698,809.1486 166.52716,803.372 166.52716,785.92459 L 166.52716,746.73026 L 182.60568,746.73026 z M 368.35071,746.73026 L 368.35071,785.32718 C 368.35071,794.7071 371.59652,797.24259 385.22422,797.24259 C 399.20472,797.24259 402.32353,794.7071 402.32353,785.32718 L 402.32353,746.73026 L 418.40675,746.73026 L 418.40675,785.92459 C 418.40675,803.372 405.68223,809.1486 388.11722,809.1486 L 382.68872,809.1486 C 364.992,809.1486 352.27689,803.372 352.27689,785.92459 L 352.27689,746.73026 L 368.35071,746.73026 z M 474.68158,795.85489 L 447.86366,795.85489 L 447.86366,765.92288 C 447.86366,760.35796 451.91386,758.06707 458.51838,758.06707 C 466.01667,758.06707 471.21938,758.86677 475.03438,759.78406 L 475.03438,748.68715 C 468.68388,746.97957 461.97587,745.93997 456.53797,745.93997 C 438.73775,745.93997 432.03915,753.32537 432.03915,764.52577 L 432.03915,827.42393 L 447.86366,827.42393 L 447.86366,807.65271 L 474.68158,807.65271 L 474.68158,795.85489 z M 44.701077,757.69075 C 28.180373,757.69075 25.630766,760.58375 25.630766,779.2354 C 25.630766,795.03168 30.828766,797.24259 44.009579,797.24259 C 57.307993,797.24259 62.50129,795.03168 62.50129,779.2354 C 62.50129,760.58375 59.612989,757.69075 44.701077,757.69075 z M 563.11345,788.3519 C 563.11345,804.98079 575.24996,809.7225 586.23868,809.7225 C 591.31908,809.7225 604.01537,809.02159 606.90837,808.44299 L 606.90837,796.77689 L 590.27948,796.77689 C 581.37937,796.77689 579.19198,795.96779 579.19198,787.4299 L 579.19198,746.73026 L 563.11345,746.73026 L 563.11345,788.3519 z M 337.72249,746.73026 L 321.53578,746.73026 L 321.53578,808.11371 L 337.72249,808.11371 L 337.72249,746.73026 z M 122.03134,757.69075 C 133.94205,757.69075 137.40425,759.54886 137.40425,765.45247 L 137.40425,775.05348 L 122.84044,774.34787 C 108.16373,773.52936 104.81443,771.44546 104.81443,766.60497 C 104.81443,759.32777 107.00652,757.69075 122.03134,757.69075 z M 337.72249,818.69787 L 321.53578,818.69787 L 321.53578,834.33421 L 337.72249,834.33421 L 337.72249,818.69787 z M 501.03851,769.38507 C 502.08281,761.89149 505.78021,757.35206 518.27423,757.35206 C 529.00892,757.35206 540.10583,759.10667 548.54964,762.10317 L 548.54964,751.25087 C 542.29323,747.86864 528.67023,745.69066 518.71641,745.69066 C 492.61351,745.69066 484.04739,752.15876 484.04739,778.1911 C 484.04739,800.9447 491.4422,809.48259 518.38713,809.48259 C 540.68914,809.48259 550.62414,801.97489 550.85934,789.3962 C 550.85934,773.66108 540.10583,769.84607 501.03851,769.38507 z M 509.60462,781.40398 C 530.62713,782.33068 533.98113,784.06649 533.98113,788.91168 C 533.98113,794.7071 530.17553,797.46369 518.14252,797.46369 C 502.76961,797.46369 500.81271,794.59891 500.81271,780.93357 L 509.60462,781.40398"
       id="path2464"
       style="fill:#ff6600;fill-opacity:1;fill-rule:evenodd;stroke:none" /></g></svg>