<svg width="210" height="207" viewBox="0 0 210 207" fill="none" xmlns="http://www.w3.org/2000/svg">
<path d="M36.152 206.32C29.816 206.32 23.096 205.648 15.992 204.304C9.08 203.152 3.896 201.616 0.440002 199.696V154.768C3.32 156.112 6.968 157.168 11.384 157.936C15.992 158.704 20.6 159.088 25.208 159.088C33.656 159.088 39.608 157.36 43.064 153.904C46.52 150.256 48.248 144.304 48.248 136.048V0.687988H99.224V141.808C99.224 161.584 93.848 177.328 83.096 189.04C72.344 200.56 56.696 206.32 36.152 206.32Z" fill="black"/>
<path d="M158.752 57.424L117.856 87.088V36.976L167.392 0.687988H209.728V202H158.752V57.424Z" fill="#FFCD00"/>
</svg>
