<svg xmlns="http://www.w3.org/2000/svg" xmlns:xlink="http://www.w3.org/1999/xlink" version="1.1" style="" xml:space="preserve" width="210" height="210"><rect id="backgroundrect" width="100%" height="100%" x="0" y="0" fill="none" stroke="none"/>
<style type="text/css">
	.st1{fill:url(#SVGID_1_);}
	.st2{fill:url(#SVGID_2_);}
	.st3{fill:url(#SVGID_3_);}
</style>
<title>mc_logo22</title>

<g class="currentLayer" style=""><title>Layer 1</title>
	
	
	<g id="svg_24" class="selected">
		<linearGradient id="SVGID_1_" gradientUnits="userSpaceOnUse" x1="137.3840026855469" y1="192.4355010986328" x2="1.39450073242188" y2="101.77580261230469">
			<stop offset="0" style="stop-color:#444646"/>
			<stop offset="3.027355e-02" style="stop-color:#4A5146"/>
			<stop offset="0.142" style="stop-color:#5F7447"/>
			<stop offset="0.2605" style="stop-color:#709148"/>
			<stop offset="0.3861" style="stop-color:#7DA848"/>
			<stop offset="0.522" style="stop-color:#86B849"/>
			<stop offset="0.6757" style="stop-color:#8BC149"/>
			<stop offset="0.8853" style="stop-color:#8DC449"/>
		</linearGradient>
		<path class="st1" d="M59.4,188.9c25.7,16.7,47.6,17.8,76,8.2c1.1-26.2-2.2-69.5-36.6-74.3c-35.7-5-63.5,0.1-97.7-18.8    C2.6,140.2,30.5,170.2,59.4,188.9z" id="svg_25"/>
		<linearGradient id="SVGID_2_" gradientUnits="userSpaceOnUse" x1="0.39590454101562" y1="97.34010314941406" x2="144.4559020996094" y2="8.701199531555176">
			<stop offset="0" style="stop-color:#350D10"/>
			<stop offset="4.652453e-02" style="stop-color:#4D1014"/>
			<stop offset="0.1397" style="stop-color:#76141B"/>
			<stop offset="0.2383" style="stop-color:#9A1821"/>
			<stop offset="0.3415" style="stop-color:#B71B26"/>
			<stop offset="0.4508" style="stop-color:#CE1E29"/>
			<stop offset="0.5691" style="stop-color:#DE202C"/>
			<stop offset="0.7029" style="stop-color:#E7212E"/>
			<stop offset="0.8853" style="stop-color:#EA212E"/>
		</linearGradient>
		<path class="st2" d="M51.5,18.6c-19.4,14.3-36,36-46.4,60.3c23.8,15.8,59.4,35.4,83.2,7.6c21.3-25,28.9-55.6,59.7-72.3    C114.3-8.1,79.8-2.3,51.5,18.6z" id="svg_26"/>
		<linearGradient id="SVGID_3_" gradientUnits="userSpaceOnUse" x1="159.5517883300781" y1="14.029500007629395" x2="169.6243896484375" y2="181.2346954345703">
			<stop offset="0" style="stop-color:#26244B"/>
			<stop offset="5.954548e-03" style="stop-color:#25264E"/>
			<stop offset="0.1037" style="stop-color:#1B4A77"/>
			<stop offset="0.207" style="stop-color:#13699B"/>
			<stop offset="0.3151" style="stop-color:#0C82B8"/>
			<stop offset="0.4297" style="stop-color:#0796CF"/>
			<stop offset="0.5538" style="stop-color:#03A3DF"/>
			<stop offset="0.694" style="stop-color:#01ABE8"/>
			<stop offset="0.8853" style="stop-color:#00AEEB"/>
		</linearGradient>
		<path class="st3" d="M206.5,101.9c0-29.1-18.9-57-41.1-74.8c-22.7,14.3-52.5,37.4-40.9,68.4c11.1,29.7,35.2,52.6,33.9,87.3    C181.4,164.4,206.5,132.8,206.5,101.9z" id="svg_27"/>
	</g>
</g></svg>