<?xml version="1.0" encoding="utf-8"?>
<!-- Generator: Adobe Illustrator 18.0.0, SVG Export Plug-In . SVG Version: 6.00 Build 0)  -->
<!DOCTYPE svg PUBLIC "-//W3C//DTD SVG 1.1//EN" "http://www.w3.org/Graphics/SVG/1.1/DTD/svg11.dtd">
<svg version="1.1" id="Layer_1" xmlns="http://www.w3.org/2000/svg" xmlns:xlink="http://www.w3.org/1999/xlink" x="0px" y="0px"
	 viewBox="13.5 252.1 1143.3 289.6" enable-background="new 13.5 252.1 1143.3 289.6" xml:space="preserve">
<g>
	<g>
		<path fill="#e0e0e0" d="M382.9,466.7c-5.3,8.6-9.4,13.9-19.6,13.9c-11,0-12.3-6.5-13.1-13.9l-11.5-76.9c0-1.2-0.8-3.7-2-3.7
			c-1.6,0-2.5,2.9-2.5,3.3l-20.9,90h-21.7l24.1-101.9c3.7-15.1,18.8-15.1,22.1-15.1c13.5,0,15.5,7,16.8,14.7l11.9,76.9
			c0.4,2.5,1.2,4.1,2,4.1c0.8,0,2.5-1.6,4.1-4.1l47.9-76.9c8.2-13.1,15.5-14.7,23.7-14.7c10.6,0,17.6,4.5,15.1,15.1l-24.1,101.9
			h-21.7l21.7-90c0.8-3.3-0.4-3.3-1.2-3.3c-1.2,0-2.9,2.5-3.7,3.7L382.9,466.7z"/>
		<path fill="#e0e0e0" d="M550.2,400c7.8,9.4,4.9,25.8,2.9,35.2c-4.5,18.4-11.9,29.5-19.6,35.6c-11.5,8.6-27.4,9.4-37.6,9.4
			c-10.2,0-25.8-0.8-33.1-9.4c-8.2-9.4-4.9-26.2-2.9-35.2c2.5-9.8,7.4-26.6,19.6-36c11.9-9,27-9.4,37.6-9.4
			C527.3,390.6,542.5,391,550.2,400z M480.3,458.1c4.1,6.5,12.3,7.4,19.2,7.4c7.4,0,15.1-0.8,22.5-7.4c7.4-6.5,9.4-14.7,11-22.5
			c1.6-6.5,4.5-16.4,0-22.9c-4.1-6.1-12.3-7-19.2-7c-6.1,0-16,0.8-22.9,7s-9.4,17.6-11,22.9C478.2,443,476.2,451.5,480.3,458.1z"/>
		<path fill="#e0e0e0" d="M571.1,404.9c0.8-2.5,1.6-6.5,4.9-9.4c4.5-4.1,10.6-4.1,14.3-4.1H621c9,0,17.2,0.8,22.9,7
			c3.7,4.1,6.1,10.6,3.3,22.9L633.7,479h-19.2l12.3-52c1.2-5.7,2-11.5,0-15.5c-2-3.7-5.3-5.3-12.7-5.3h-19.6c-1.2,0-2.5,0-3.7,0.8
			c-1.2,1.2-1.6,2.5-2,3.7l-16,68.3h-19.2L571.1,404.9z"/>
		<path fill="#e0e0e0" d="M677.5,479c-9,0-19.2-0.8-24.1-11c-3.7-8.2-1.6-20.5,1.2-31.9c3.7-16.4,7.4-28.2,19.2-36.8
			c11.5-8.2,26.2-8.2,34.8-8.2c10.2,0,20.9,0.4,27.4,5.7c8.6,6.5,8.2,17.2,5.7,28.2c-1.2,4.5-2.9,9.4-7.4,13.1
			c-3.3,2.5-6.5,3.3-10.2,3.3h-50.7c-0.8,3.7-1.6,9.4-1.6,11.9c0.4,9.4,8.2,10.2,15.1,10.2h42.5l-3.7,14.7h-48.3V479z M716.7,427
			c3.7,0,4.9-2.9,5.3-4.9c1.2-5.3-0.4-9.4-2.9-11.9c-4.1-3.7-10.2-4.1-15.5-4.1c-4.9,0-13.1,0-19.6,5.7c-4.9,4.5-6.1,9.4-7.4,15.1
			H716.7z"/>
		<path fill="#e0e0e0" d="M767.5,507.2h-19.6l20-28.6l-18.4-86.7h20l12.3,67.1l45.4-67.1h19.6L767.5,507.2z"/>
		<path fill="#e0e0e0" d="M860.7,479c-6.5,0-18-1.2-23.7-10.6c-5.3-8.6-3.3-19.6-0.4-31.9c2.5-10.2,6.1-25.4,18.4-35.6
			c4.5-3.7,13.1-9.4,29-9.4h37.6l-3.7,14.7h-31.1c-13.1,0-20.9,6.5-24.5,13.9c-2.5,4.5-4.9,13.9-5.3,16.4c-1.2,5.3-2.9,13.5-1.6,18
			c2.5,8.6,11.9,9.4,19.6,9.4h31.5l-3.7,14.7h-42.1V479z"/>
		<path fill="#e0e0e0" d="M988,391.8c7.4,0,13.5,2.5,16.4,7c2.9,3.7,3.7,11,1.6,20.5l-10.6,45.4c-0.8,3.3-2,8.2-6.1,11
			c-3.7,3.3-8.6,3.3-12.7,3.3h-41.7c-4.9,0-11,0-14.7-4.1c-5.7-6.1-3.7-17.2-2-23.7c1.6-7.8,4.5-15.5,12.3-21.3
			c6.5-4.9,12.7-5.3,17.2-5.3h38l1.6-6.1c0.8-2.5,0.8-5.7-0.4-8.2c-2-3.3-5.7-3.7-8.6-3.7h-43l3.7-14.7L988,391.8L988,391.8z
			 M949.9,439.7c-1.2,0-4.9,0-7.8,2.9c-0.8,0.8-2.9,3.3-4.5,9.4c-0.8,2.5-1.2,7.4,0.4,9.8c0.8,1.2,3.3,2.5,5.7,2.5h27
			c1.2,0,2.9,0,4.5-0.8c1.6-1.2,2-2.5,2-3.7l4.9-20L949.9,439.7L949.9,439.7z"/>
		<path fill="#e0e0e0" d="M1018.2,424.5c2.5-9.4,6.1-18.8,15.1-25.4c9.8-7,21.3-7.8,28.2-7.8h13.1l-3.7,14.7h-8.2
			c-5.3,0-11.9,0.8-18,6.1c-4.5,4.5-7,10.6-8.6,17.2l-11.5,49.5h-19.2L1018.2,424.5z"/>
		<path fill="#e0e0e0" d="M1091,479c-9,0-19.2-0.8-24.1-11c-3.7-8.2-1.6-20.5,1.2-31.9c3.7-16.4,7.4-28.2,19.2-36.8
			c11.5-8.2,26.2-8.2,34.8-8.2c10.2,0,20.9,0.4,27.4,5.7c8.6,6.5,8.2,17.2,5.7,28.2c-1.2,4.5-2.9,9.4-7.4,13.1
			c-3.3,2.5-6.5,3.3-10.2,3.3H1087c-0.8,3.7-1.6,9.4-1.6,11.9c0.4,9.4,8.2,10.2,15.1,10.2h42.5l-3.7,14.7H1091V479z M1130.3,427
			c3.7,0,4.9-2.9,5.3-4.9c1.2-5.3-0.4-9.4-2.9-11.9c-4.1-3.7-10.2-4.1-15.5-4.1c-4.9,0-13.1,0-19.6,5.7c-4.9,4.5-6.1,9.4-7.4,15.1
			H1130.3z"/>
	</g>
	<g>
		<path fill="#00ABEB" d="M268,258.5c-47.9,20-81.4,67.5-81.4,122.7c0,41.7,19.2,79.4,49.9,103.5c-18.4-22.9-29.5-51.5-29.5-83
			c0-49.9,27.4-93.3,67.9-115.8L268,258.5z"/>
		<path fill="#B3272D" d="M146.5,369.7c-38.5,22.1-83,22.9-120.7,6.1c-4.9,8.2-9,16.8-12.3,25.8c38.5,19.2,85.5,19.2,125.6-4.1
			c36.4-20.9,58.9-56.5,65-94.9C193.5,330,173.9,354.2,146.5,369.7z"/>
		<path fill="#32A357" d="M215.2,541.5c9.4,0.4,18.8,0,28.2-1.6c-2-43.8-25.4-85.5-66.3-109.2c-36.4-20.9-78.5-22.9-114.5-8.6
			c29-4.5,59.3,0.4,86.7,16.4C188.2,460.5,211.5,499.8,215.2,541.5z"/>
	</g>
</g>
</svg>
