<svg width="14" height="10" viewBox="0 0 14 10" fill="none" xmlns="http://www.w3.org/2000/svg">
<path d="M4.34469 7.8432L1.67844 5.16114C1.60872 5.09015 1.52568 5.03379 1.43414 4.99532C1.34261 4.95685 1.24439 4.93704 1.14519 4.93704C1.04598 4.93704 0.947766 4.95685 0.856229 4.99532C0.764693 5.03379 0.681657 5.09015 0.611936 5.16114C0.541365 5.23127 0.485334 5.3148 0.447093 5.40688C0.408852 5.49896 0.38916 5.59776 0.38916 5.69755C0.38916 5.79734 0.408852 5.89614 0.447093 5.98822C0.485334 6.0803 0.541365 6.16383 0.611936 6.23396L3.80382 9.44477C4.10092 9.74362 4.58084 9.74362 4.87794 9.44477L12.9529 1.32963C13.0234 1.2595 13.0795 1.17597 13.1177 1.08389C13.156 0.991813 13.1756 0.893014 13.1756 0.793222C13.1756 0.693431 13.156 0.594632 13.1177 0.502553C13.0795 0.410473 13.0234 0.326946 12.9529 0.256812C12.8832 0.185822 12.8001 0.129459 12.7086 0.0909908C12.617 0.0525228 12.5188 0.0327148 12.4196 0.0327148C12.3204 0.0327148 12.2222 0.0525228 12.1307 0.0909908C12.0391 0.129459 11.9561 0.185822 11.8864 0.256812L4.34469 7.8432Z" fill="#FFCD00"/>
</svg>
