<svg width="25" height="23" viewBox="0 0 25 23" fill="none" xmlns="http://www.w3.org/2000/svg">
<path d="M19.7287 22.09C19.9069 22.3302 20.2469 22.3814 20.4789 22.1926C22.2908 20.7177 23.638 18.7447 24.3504 16.5114C25.1177 14.1059 25.1097 11.52 24.3275 9.11928C23.5452 6.71855 22.0283 4.62434 19.9912 3.1326C17.954 1.64085 15.4995 0.827009 12.9747 0.806078C10.4498 0.785147 7.98221 1.55819 5.92058 3.01595C3.85896 4.47372 2.30756 6.54249 1.48564 8.92993C0.663711 11.3174 0.61282 13.9027 1.34015 16.3206C2.0154 18.5654 3.3297 20.5605 5.11697 22.0652C5.34574 22.2578 5.68658 22.2123 5.86872 21.9751C6.05085 21.7379 6.00522 21.3989 5.7773 21.2053C4.16968 19.8396 2.98708 18.036 2.37724 16.0087C1.7153 13.8081 1.76162 11.4552 2.50964 9.28246C3.25767 7.10969 4.66958 5.22691 6.54584 3.90022C8.42211 2.57352 10.6678 1.86998 12.9657 1.88903C15.2636 1.90808 17.4973 2.64875 19.3513 4.00637C21.2054 5.364 22.5859 7.26992 23.2978 9.45479C24.0097 11.6397 24.017 13.993 23.3186 16.1823C22.6753 18.1992 21.4629 19.9829 19.8329 21.3218C19.6018 21.5117 19.5505 21.8498 19.7287 22.09Z" fill="#FFCD00"/>
</svg>
