<svg width="16" height="16" viewBox="0 0 32 32" fill="none" xmlns="http://www.w3.org/2000/svg">
<path fill-rule="evenodd" clip-rule="evenodd" d="M8 14.9333C11.8292 14.9333 14.9333 11.8292 14.9333 8C14.9333 4.17083 11.8292 1.06667 8 1.06667C4.17083 1.06667 1.06667 4.17083 1.06667 8C1.06667 11.8292 4.17083 14.9333 8 14.9333ZM8 16C12.4183 16 16 12.4183 16 8C16 3.58172 12.4183 0 8 0C3.58172 0 0 3.58172 0 8C0 12.4183 3.58172 16 8 16Z" fill="#ED1C24"/>
<path d="M7.40923 12.8V6.07873H8.59077V12.8H7.40923ZM8 4.7852C7.77026 4.7852 7.57744 4.70912 7.42154 4.55694C7.27385 4.40476 7.2 4.21876 7.2 3.99894C7.2 3.77067 7.27385 3.58045 7.42154 3.42827C7.57744 3.27609 7.77026 3.2 8 3.2C8.22974 3.2 8.41846 3.27609 8.56615 3.42827C8.72205 3.57199 8.8 3.75376 8.8 3.97358C8.8 4.20185 8.72615 4.3963 8.57846 4.55694C8.43077 4.70912 8.23795 4.7852 8 4.7852Z" fill="#ED1C24"/>
</svg>
