<svg
  width="40"
  height="40"
  viewBox="0 0 40 40"
  fill="none"
  xmlns="http://www.w3.org/2000/svg"
>
<path
  d="M19.3895 13H20.6105C20.719 13 20.7733 13.0519 20.7733 13.1556V26.8444C20.7733 26.9481 20.719 27 20.6105 27H19.3895C19.281 27 19.2267 26.9481 19.2267 26.8444V13.1556C19.2267 13.0519 19.281 13 19.3895 13Z"
  fill="#FFCD00"
/>
<path
  d="M13.1628 19.2612H26.8372C26.9457 19.2612 27 19.3131 27 19.4168V20.5835C27 20.6872 26.9457 20.739 26.8372 20.739H13.1628C13.0543 20.739 13 20.6872 13 20.5835V19.4168C13 19.3131 13.0543 19.2612 13.1628 19.2612Z"
  fill="#FFCD00"
/>
<rect
  x="1"
  y="1"
  width="38"
  height="38"
  rx="19"
  stroke="#FFCD00"
  stroke-width="2"
/>
</svg>
