<svg width="20" height="21" viewBox="0 0 20 21" fill="none" xmlns="http://www.w3.org/2000/svg">
<path d="M18.3065 14.2122C17.031 14.2122 15.7969 13.9933 14.6458 13.5995C14.2828 13.4682 13.8784 13.5666 13.5984 13.8621L11.9702 16.0175C9.03539 14.5404 6.28725 11.7503 4.82502 8.54444L6.84725 6.72814C7.12725 6.42178 7.21021 5.99505 7.09613 5.6121C6.71243 4.39758 6.51539 3.09554 6.51539 1.74972C6.51539 1.15888 6.04873 0.666504 5.48873 0.666504H1.90058C1.34058 0.666504 0.666504 0.929102 0.666504 1.74972C0.666504 11.9144 8.6828 20.3613 18.3065 20.3613C19.0428 20.3613 19.3332 19.672 19.3332 19.0702V15.2954C19.3332 14.7046 18.8665 14.2122 18.3065 14.2122Z" fill="black"/>
</svg>
