<svg width="42" height="50" viewBox="0 0 42 50" fill="none" xmlns="http://www.w3.org/2000/svg">
<path fill-rule="evenodd" clip-rule="evenodd" d="M21.4438 0.772506C21.1705 0.692544 20.88 0.692035 20.6065 0.771039L1.79772 6.20235C1.1558 6.38771 0.713867 6.97531 0.713867 7.64347V7.64347V7.6435V7.64363V7.64436V7.64894V7.68045V7.91225V9.68539V23.5455C0.713867 32.017 5.41379 38.4538 10.1131 42.6942C12.4727 44.8234 14.873 46.4382 16.778 47.5244C17.7304 48.0674 18.5719 48.4857 19.2359 48.7729C19.5663 48.9158 19.8684 49.0331 20.1281 49.1175C20.3245 49.1813 20.682 49.2912 21.0369 49.2879C21.3743 49.2846 21.7164 49.1803 21.9141 49.1162C22.1696 49.0332 22.4674 48.9185 22.794 48.7786C23.45 48.4975 24.2813 48.0893 25.2223 47.5591C27.1042 46.4989 29.4745 44.9232 31.8046 42.841C36.4452 38.694 41.087 32.3836 41.087 24.0303V23.9396V23.8492V23.7591V23.6694V23.58V23.4909V23.4022V23.3137V23.2257V23.1379V23.0505V22.9634V22.8766V22.7902V22.7041V22.6183V22.5328V22.4477V22.3629V22.2784V22.1942V22.1104V22.0268V21.9436V21.8608V21.7782V21.6959V21.614V21.5324V21.4511V21.3701V21.2895V21.2092V21.1291V21.0494V20.97V20.8909V20.8122V20.7337V20.6555V20.5777V20.5002V20.4229V20.346V20.2694V20.1931V20.1171V20.0415V19.9661V19.891V19.8162V19.7418V19.6676V19.5938V19.5202V19.4469V19.374V19.3013V19.229V19.1569V19.0852V19.0137V18.9425V18.8717V18.8011V18.7308V18.6608V18.5912V18.5218V18.4527V18.3838V18.3153V18.2471V18.1792V18.1115V18.0442V17.9771V17.9103V17.8438V17.7776V17.7117V17.646V17.5807V17.5156V17.4508V17.3863V17.3221V17.2582V17.1945V17.1311V17.068V17.0052V16.9427V16.8804V16.8184V16.7567V16.6953V16.6341V16.5732V16.5126V16.4523V16.3922V16.3324V16.2729V16.2137V16.1547V16.096V16.0376V15.9794V15.9215V15.8639V15.8065V15.7494V15.6926V15.636V15.5797V15.5237V15.4679V15.4124V15.3571V15.3021V15.2474V15.1929V15.1387V15.0847V15.0311V14.9776V14.9244V14.8715V14.8188V14.7664V14.7143V14.6624V14.6107V14.5593V14.5082V14.4573V14.4066V14.3562V14.3061V14.2562V14.2066V14.1572V14.108V14.0591V14.0104V13.962V13.9139V13.8659V13.8182V13.7708V13.7236V13.6767V13.6299V13.5835V13.5372V13.4912V13.4455V13.4V13.3547V13.3096V13.2648V13.2202V13.1759V13.1318V13.0879V13.0443V13.0009V12.9577V12.9148V12.8721V12.8296V12.7873V12.7453V12.7035V12.6619V12.6206V12.5795V12.5386V12.4979V12.4575V12.4173V12.3773V12.3375V12.2979V12.2586V12.2195V12.1806V12.1419V12.1035V12.0653V12.0272V11.9895V11.9519V11.9145V11.8774V11.8404V11.8037V11.7672V11.7309V11.6948V11.6589V11.6233V11.5878V11.5526V11.5176V11.4827V11.4481V11.4137V11.3795V11.3455V11.3117V11.2781V11.2447V11.2116V11.1786V11.1458V11.1132V11.0809V11.0487V11.0167V10.9849V10.9534V10.922V10.8908V10.8598V10.829V10.7984V10.7681V10.7378V10.7078V10.678V10.6484V10.619V10.5897V10.5607V10.5318V10.5031V10.4747V10.4464V10.4183V10.3903V10.3626V10.3351V10.3077V10.2805V10.2535V10.2267V10.2001V10.1736V10.1474V10.1213V10.0954V10.0696V10.0441V10.0187V9.99353V9.96851V9.94367V9.91901V9.89452V9.87021V9.84607V9.8221V9.79831V9.77468V9.75124V9.72795V9.70484V9.6819V9.65913V9.63653V9.61409V9.59183V9.56973V9.54779V9.52602V9.50441V9.48297V9.46169V9.44058V9.41962V9.39883V9.3782V9.35773V9.33742V9.31727V9.29727V9.27744V9.25776V9.23824V9.21887V9.19966V9.1806V9.1617V9.14295V9.12436V9.10592V9.08763V9.06949V9.0515V9.03366V9.01597V8.99842V8.98103V8.96378V8.94668V8.92973V8.91292V8.89626V8.87974V8.86337V8.84713V8.83105V8.8151V8.79929V8.78363V8.7681V8.75271V8.73747V8.72236V8.70739V8.69255V8.67785V8.66329V8.64886V8.63457V8.62041V8.60638V8.59249V8.57873V8.5651V8.5516V8.53823V8.52499V8.51188V8.49889V8.48604V8.47331V8.46071V8.44823V8.43588V8.42366V8.41156V8.39958V8.38772V8.37599V8.36438V8.35289V8.34152V8.33027V8.31913V8.30812V8.29722V8.28645V8.27578V8.26524V8.25481V8.24449V8.23429V8.2242V8.21423V8.20436V8.19461V8.18497V8.17544V8.16602V8.15671V8.14751V8.13842V8.12943V8.12055V8.11178V8.10311V8.09455V8.08609V8.07773V8.06948V8.06133V8.05328V8.04534V8.03749V8.02974V8.0221V8.01455V8.0071V7.99975V7.99249V7.98533V7.97827V7.9713V7.96443V7.95765V7.95096V7.94437V7.93786V7.93145V7.92513V7.9189V7.91276V7.90671V7.90075V7.89487V7.88908V7.88338V7.87776V7.87223V7.86679V7.86142V7.85614V7.85095V7.84583V7.8408V7.83585V7.83098V7.82619V7.82147V7.81684V7.81228V7.8078V7.8034V7.79907V7.79482V7.79065V7.78654V7.78251V7.77856V7.77467V7.77086V7.76712V7.76345V7.75985V7.75632V7.75285V7.74946V7.74613V7.74287V7.73967V7.73655V7.73348V7.73048V7.72754V7.72467V7.72186V7.71911V7.71642V7.71379V7.71123V7.70872V7.70627V7.70388V7.70154V7.69927V7.69705V7.69488V7.69277V7.69072V7.68871V7.68677V7.68487V7.68303V7.68123V7.67949V7.6778V7.67616V7.67456V7.67302V7.67152V7.67007V7.66867V7.66731V7.666V7.66473V7.6635V7.66232V7.66118V7.66009V7.65903V7.65802V7.65704V7.65611V7.65522V7.65436V7.65354V7.65276V7.65201V7.6513V7.65063V7.64999V7.64939V7.64882V7.64828V7.64777V7.6473V7.64685V7.64644V7.64606V7.6457V7.64538V7.64508V7.64481V7.64457V7.64435V7.64416V7.64399V7.64385V7.64373V7.64363V7.64356V7.64351V7.64347C41.087 6.97726 40.6476 6.39088 40.0082 6.20381L21.4438 0.772506ZM3.71387 9.68539V8.77161L21.0199 3.77424L38.087 8.7675V8.7681V8.78363V8.79929V8.8151V8.83105V8.84713V8.86337V8.87974V8.89626V8.91292V8.92973V8.94668V8.96378V8.98103V8.99842V9.01597V9.03366V9.0515V9.06949V9.08763V9.10592V9.12436V9.14295V9.1617V9.1806V9.19966V9.21887V9.23824V9.25776V9.27744V9.29727V9.31727V9.33742V9.35773V9.3782V9.39883V9.41962V9.44058V9.46169V9.48297V9.50441V9.52602V9.54779V9.56973V9.59183V9.61409V9.63653V9.65913V9.6819V9.70484V9.72795V9.75124V9.77468V9.79831V9.8221V9.84607V9.87021V9.89452V9.91901V9.94367V9.96851V9.99353V10.0187V10.0441V10.0696V10.0954V10.1213V10.1474V10.1736V10.2001V10.2267V10.2535V10.2805V10.3077V10.3351V10.3626V10.3903V10.4183V10.4464V10.4747V10.5031V10.5318V10.5607V10.5897V10.619V10.6484V10.678V10.7078V10.7378V10.7681V10.7984V10.829V10.8598V10.8908V10.922V10.9534V10.9849V11.0167V11.0487V11.0809V11.1132V11.1458V11.1786V11.2116V11.2447V11.2781V11.3117V11.3455V11.3795V11.4137V11.4481V11.4827V11.5176V11.5526V11.5878V11.6233V11.6589V11.6948V11.7309V11.7672V11.8037V11.8404V11.8774V11.9145V11.9519V11.9895V12.0272V12.0653V12.1035V12.1419V12.1806V12.2195V12.2586V12.2979V12.3375V12.3773V12.4173V12.4575V12.4979V12.5386V12.5795V12.6206V12.6619V12.7035V12.7453V12.7873V12.8296V12.8721V12.9148V12.9577V13.0009V13.0443V13.0879V13.1318V13.1759V13.2202V13.2648V13.3096V13.3547V13.4V13.4455V13.4912V13.5372V13.5835V13.6299V13.6767V13.7236V13.7708V13.8182V13.8659V13.9139V13.962V14.0104V14.0591V14.108V14.1572V14.2066V14.2562V14.3061V14.3562V14.4066V14.4573V14.5082V14.5593V14.6107V14.6624V14.7143V14.7664V14.8188V14.8715V14.9244V14.9776V15.0311V15.0847V15.1387V15.1929V15.2474V15.3021V15.3571V15.4124V15.4679V15.5237V15.5797V15.636V15.6926V15.7494V15.8065V15.8639V15.9215V15.9794V16.0376V16.096V16.1547V16.2137V16.2729V16.3324V16.3922V16.4523V16.5126V16.5732V16.6341V16.6953V16.7567V16.8184V16.8804V16.9427V17.0052V17.068V17.1311V17.1945V17.2582V17.3221V17.3863V17.4508V17.5156V17.5807V17.646V17.7117V17.7776V17.8438V17.9103V17.9771V18.0442V18.1115V18.1792V18.2471V18.3153V18.3838V18.4527V18.5218V18.5912V18.6608V18.7308V18.8011V18.8717V18.9425V19.0137V19.0852V19.1569V19.229V19.3013V19.374V19.4469V19.5202V19.5938V19.6676V19.7418V19.8162V19.891V19.9661V20.0415V20.1171V20.1931V20.2694V20.346V20.4229V20.5002V20.5777V20.6555V20.7337V20.8122V20.8909V20.97V21.0494V21.1291V21.2092V21.2895V21.3701V21.4511V21.5324V21.614V21.6959V21.7782V21.8608V21.9436V22.0268V22.1104V22.1942V22.2784V22.3629V22.4477V22.5328V22.6183V22.7041V22.7902V22.8766V22.9634V23.0505V23.1379V23.2257V23.3137V23.4022V23.4909V23.58V23.6694V23.7591V23.8492V23.9396V24.0303C38.087 31.1923 34.1136 36.7543 29.8056 40.6041C27.6612 42.5203 25.4738 43.9741 23.7498 44.9454C22.8879 45.431 22.1541 45.789 21.6126 46.021C21.3596 46.1294 21.1611 46.2049 21.0192 46.2524C20.8779 46.2048 20.6799 46.1289 20.4269 46.0195C19.8799 45.7829 19.1374 45.4163 18.264 44.9182C16.5173 43.9223 14.2987 42.4303 12.1229 40.4669C7.75133 36.5223 3.71387 30.8315 3.71387 23.5455V9.68539ZM21.1431 24.0303C24.896 24.0303 27.9383 20.4486 27.9383 16.0303C27.9383 11.6121 26.9675 8.03034 21.1431 8.03034C15.3187 8.03034 14.348 11.6121 14.348 16.0303C14.348 20.4486 17.3903 24.0303 21.1431 24.0303ZM21.1432 23.3031C23.6789 23.3031 27.2098 20.6364 26.9671 15.0606C26.8062 15.141 26.482 15.303 25.9967 15.7879C23.8125 13.8485 22.5992 13.6061 21.1431 13.6061C20.9588 13.6061 20.7881 13.6042 20.6283 13.6024H20.6283C18.9863 13.5841 18.5007 13.5786 16.2891 15.7879C15.8037 15.303 15.3185 15.0606 15.3185 15.0606C14.5903 20.1515 18.474 23.3031 21.1432 23.3031ZM19.2017 11.1821C19.2017 11.1821 20.3849 10.697 21.1431 10.697C21.9013 10.697 23.0846 11.1821 23.0846 11.1821V12.3947C23.0846 12.3947 21.9072 11.9097 21.1431 11.9097C20.379 11.9097 19.2017 12.3947 19.2017 12.3947V11.1821ZM12.8919 33.9697C15.8041 30.3334 17.9883 34.2121 17.9883 34.2121H24.298C24.298 34.2121 26.4822 30.8182 29.3944 33.9697L26.4822 33.9697V36.1515H29.3944C26.4822 39.0606 24.298 36.1515 24.298 36.1515H17.9883C17.9883 36.1515 15.8041 39.0606 12.8919 36.1515H15.8041V33.9697H12.8919ZM20.1724 25L17.0175 23.7879L10.2224 27.4243C10.2224 27.4243 9.5777 29.0318 9.25167 30.0909C8.90713 31.2103 8.52362 33 8.52362 33L11.9212 35.4243H12.1639C12.1484 35.379 12.1321 35.3329 12.1156 35.2861C12.0222 35.0223 11.9212 34.7365 11.9212 34.4546C11.9212 33.8604 12.0984 33.3047 12.4066 32.8304V32.7576H12.4553C13.059 31.8829 14.1159 31.3031 15.3187 31.3031C16.5216 31.3031 17.5784 31.8829 18.1822 32.7576H24.1041C24.7078 31.8829 25.7647 31.3031 26.9675 31.3031C28.844 31.3031 30.3651 32.7141 30.3651 34.4546C30.3651 34.7388 30.264 35.0238 30.1701 35.2885C30.1538 35.3344 30.1377 35.3797 30.1224 35.4243H30.3651L33.52 33C33.52 33 33.408 31.1806 33.0346 30.0909C32.6501 28.9686 31.5785 27.4243 31.5785 27.4243L25.0261 23.7879L22.1139 25L21.1431 27.4243L20.1724 25Z" fill="#0F0F0D"/>
</svg>
