<?xml version="1.0" encoding="utf-8"?>
<!-- Generator: Adobe Illustrator 19.2.0, SVG Export Plug-In . SVG Version: 6.00 Build 0)  -->
<svg version="1.1" id="Layer_1" xmlns="http://www.w3.org/2000/svg" xmlns:xlink="http://www.w3.org/1999/xlink" x="0px" y="0px"
	 viewBox="0 0 162.8 37.1" style="enable-background:new 0 0 162.8 37.1;" xml:space="preserve">
<style type="text/css">
	.st0{fill:#FFFFFF;}
	.st1{fill:url(#SVGID_1_);}
	.st2{fill:url(#SVGID_2_);}
	.st3{fill:url(#SVGID_3_);}
	.st4{fill:#FF7D00;}
</style>
<title>dns-powered</title>
<g id="Layer_1_1_">
	<path class="st0" d="M77.3,33.4c-0.2,0.6-0.7,0.9-1.3,0.9c-0.5,0-0.9-0.3-0.9-0.8c0-0.1,0-0.1,0-0.2l-0.8-5.1
		c0-0.1-0.1-0.2-0.1-0.2c-0.1,0-0.2,0.1-0.2,0.2l-1.3,6H71l1.6-6.8c0.2-0.6,0.8-1.1,1.5-1c0.5-0.1,1.1,0.3,1.1,0.8
		c0,0.1,0,0.1,0,0.2l0.9,5.1c0,0.1,0,0.2,0.1,0.3c0.1-0.1,0.2-0.2,0.3-0.3l3.2-5.1c0.3-0.6,0.9-1,1.6-1c0.7,0,1.2,0.3,1,1l-1.6,6.8
		h-1.5l1.4-6c0-0.2,0-0.2-0.1-0.2c-0.1,0.1-0.2,0.1-0.2,0.2L77.3,33.4z"/>
	<path class="st0" d="M85.3,34.3c-0.9,0.1-1.7-0.2-2.3-0.9c-0.4-0.9-0.5-1.9-0.1-2.8c0.2-1.1,0.7-2.2,1.4-3c0.8-0.7,1.8-1,2.8-1h4
		l-0.3,1.2h-3.3c-0.8-0.1-1.6,0.1-2.2,0.7c-0.5,0.6-0.8,1.3-0.9,2.1c-0.2,0.6-0.2,1.3-0.1,1.9c0.3,0.6,1,0.7,1.9,0.7h3.5l-0.3,1.2
		L85.3,34.3L85.3,34.3z"/>
	<g>
		
			<linearGradient id="SVGID_1_" gradientUnits="userSpaceOnUse" x1="131.4435" y1="-36.3296" x2="126.0659" y2="-32.7512" gradientTransform="matrix(1 0 0 -1 -64.37 -2.31)">
			<stop  offset="0" style="stop-color:#454747"/>
			<stop  offset="3.000000e-02" style="stop-color:#4B5147"/>
			<stop  offset="0.14" style="stop-color:#5F7448"/>
			<stop  offset="0.26" style="stop-color:#709149"/>
			<stop  offset="0.38" style="stop-color:#7DA849"/>
			<stop  offset="0.52" style="stop-color:#87B84A"/>
			<stop  offset="0.68" style="stop-color:#8CC14A"/>
			<stop  offset="0.89" style="stop-color:#8EC44A"/>
		</linearGradient>
		<path class="st1" d="M64,33.9c0.9,0.6,2,0.7,3,0.3c0-1-0.1-2.8-1.4-2.9s-2.5,0-3.9-0.7C61.9,31.9,62.7,33.2,64,33.9z"/>
		
			<linearGradient id="SVGID_2_" gradientUnits="userSpaceOnUse" x1="125.9032" y1="-32.5487" x2="131.7232" y2="-29.0487" gradientTransform="matrix(1 0 0 -1 -64.37 -2.31)">
			<stop  offset="0" style="stop-color:#331416"/>
			<stop  offset="5.000000e-02" style="stop-color:#4C161A"/>
			<stop  offset="0.14" style="stop-color:#751B1F"/>
			<stop  offset="0.24" style="stop-color:#991E25"/>
			<stop  offset="0.34" style="stop-color:#B62129"/>
			<stop  offset="0.45" style="stop-color:#CD232C"/>
			<stop  offset="0.57" style="stop-color:#DD252E"/>
			<stop  offset="0.7" style="stop-color:#E62630"/>
			<stop  offset="0.89" style="stop-color:#E92630"/>
		</linearGradient>
		<path class="st2" d="M63.7,27.1c-0.8,0.6-1.4,1.4-1.8,2.4c0.9,0.6,2.4,1.4,3.3,0.3s1.1-2.2,2.4-2.9C66.3,26.1,64.8,26.2,63.7,27.1
			z"/>
		
			<linearGradient id="SVGID_3_" gradientUnits="userSpaceOnUse" x1="132.3238" y1="-29.2697" x2="132.7238" y2="-35.8797" gradientTransform="matrix(1 0 0 -1 -64.37 -2.31)">
			<stop  offset="0" style="stop-color:#26244B"/>
			<stop  offset="8.000000e-02" style="stop-color:#26436D"/>
			<stop  offset="0.19" style="stop-color:#266390"/>
			<stop  offset="0.3" style="stop-color:#277EAD"/>
			<stop  offset="0.42" style="stop-color:#2792C4"/>
			<stop  offset="0.54" style="stop-color:#27A1D4"/>
			<stop  offset="0.69" style="stop-color:#27A9DD"/>
			<stop  offset="0.89" style="stop-color:#27ACE0"/>
		</linearGradient>
		<path class="st3" d="M69.8,30.4c-0.1-1.2-0.7-2.3-1.6-3c-0.9,0.6-2.1,1.5-1.6,2.7s1.4,2.1,1.3,3.4C68.9,32.8,69.6,31.7,69.8,30.4z
			"/>
	</g>
	<path class="st0" d="M0,34.3l1.3-6.3c0-0.3,0.2-0.6,0.4-0.8c0.3-0.2,0.6-0.3,0.9-0.3h3.5c0.5-0.1,1,0.1,1.4,0.4
		c0.3,0.6,0.4,1.3,0.2,2c-0.1,0.8-0.5,1.5-1.1,2c-0.4,0.2-0.8,0.4-1.2,0.4H2l-0.6,2.6C1.4,34.3,0,34.3,0,34.3z M4.9,30.5
		c0.4,0,0.7-0.1,1-0.3c0.2-0.3,0.4-0.6,0.5-1c0.1-0.3,0.1-0.7,0-1C6.1,28,5.8,27.9,5.5,28H3.2c-0.1,0-0.3,0-0.3,0.1
		c-0.1,0.1-0.2,0.2-0.2,0.3l-0.4,2.1L4.9,30.5L4.9,30.5z"/>
	<path class="st0" d="M13.7,29.2c0.4,0.7,0.5,1.5,0.2,2.2c-0.1,0.9-0.6,1.7-1.2,2.3c-0.7,0.5-1.6,0.7-2.4,0.6
		c-0.8,0.1-1.5-0.1-2.2-0.6C7.8,33,7.7,32.2,8,31.5c0.1-0.9,0.6-1.7,1.2-2.3c0.7-0.5,1.6-0.7,2.4-0.6C12.3,28.5,13.1,28.7,13.7,29.2
		z M9.3,32.9c0.3,0.4,0.8,0.5,1.2,0.5c0.5,0,1-0.1,1.4-0.5c0.4-0.4,0.6-0.9,0.7-1.4c0.2-0.5,0.2-1,0-1.5c-0.3-0.3-0.8-0.5-1.3-0.4
		c-0.5,0-1,0.1-1.5,0.4c-0.4,0.4-0.6,0.9-0.7,1.5C9.1,31.9,9.1,32.4,9.3,32.9z"/>
	<path class="st0" d="M16,32.8c0,0.1,0,0.1,0.1,0.2c0.1,0,0.1-0.1,0.1-0.2l1.8-3.7c0.2-0.3,0.5-0.5,0.9-0.5c0.3-0.1,0.6,0.1,0.7,0.5
		c0,0,0,0,0,0l0.2,3.7c0,0,0,0.2,0.1,0.2c0.1,0,0.1-0.1,0.2-0.2l2-4.2h1.2l-2.4,4.9c-0.2,0.5-0.6,0.8-1.1,0.8
		c-0.4,0.1-0.7-0.2-0.8-0.6c0,0,0,0,0-0.1l-0.2-3.5V30c-0.1,0-0.1,0.1-0.1,0.2l-1.7,3.5c-0.2,0.4-0.6,0.7-1.1,0.6
		c-0.4,0.1-0.7-0.2-0.8-0.5c0-0.1,0-0.2,0-0.2l-0.3-4.9h1.2L16,32.8z"/>
	<path class="st0" d="M24.2,34.3c-0.6,0.1-1.3-0.2-1.6-0.7c-0.2-0.7-0.2-1.4,0-2.1c0.1-0.9,0.5-1.8,1.2-2.4c0.7-0.4,1.4-0.6,2.2-0.5
		c0.6-0.1,1.2,0.1,1.8,0.4c0.5,0.5,0.7,1.2,0.4,1.8c0,0.3-0.2,0.6-0.4,0.8c-0.2,0.1-0.4,0.2-0.7,0.2h-3.2c-0.1,0.3-0.1,0.5-0.1,0.8
		c0,0.4,0.4,0.7,0.9,0.7c0,0,0.1,0,0.1,0h2.8l-0.2,1L24.2,34.3L24.2,34.3z M26.6,30.9c0.2,0,0.3-0.1,0.3-0.3c0.1-0.3,0-0.6-0.2-0.8
		c-0.3-0.2-0.6-0.3-1-0.2c-0.5,0-0.9,0.1-1.3,0.4c-0.3,0.3-0.4,0.6-0.5,1L26.6,30.9L26.6,30.9z"/>
	<path class="st0" d="M29,30.8c0.1-0.6,0.4-1.2,0.9-1.6c0.5-0.4,1.2-0.5,1.8-0.5h0.8l-0.2,1h-0.5c-0.4,0-0.8,0.1-1.2,0.4
		c-0.3,0.3-0.5,0.7-0.5,1.1l-0.7,3.2h-1.3L29,30.8z"/>
	<path class="st0" d="M33.8,34.3c-0.6,0.1-1.2-0.2-1.6-0.7c-0.2-0.7-0.2-1.4,0-2.1c0.1-0.9,0.5-1.8,1.2-2.4c0.7-0.4,1.5-0.6,2.3-0.5
		c0.6-0.1,1.2,0.1,1.8,0.4c0.5,0.5,0.7,1.2,0.4,1.8c0,0.3-0.2,0.6-0.4,0.8c-0.2,0.1-0.4,0.2-0.7,0.2h-3.3c-0.1,0.3-0.1,0.5-0.1,0.8
		c0,0.4,0.4,0.7,0.9,0.7c0,0,0.1,0,0.1,0h2.8l-0.2,1L33.8,34.3L33.8,34.3z M36.2,30.9c0.2,0,0.3-0.1,0.3-0.3c0.1-0.3,0-0.6-0.2-0.8
		c-0.3-0.2-0.6-0.3-1-0.2c-0.5,0-0.9,0.1-1.3,0.4c-0.3,0.3-0.4,0.6-0.5,1L36.2,30.9L36.2,30.9z"/>
	<path class="st0" d="M44.4,26.8l-1.4,6.4c0,0.3-0.2,0.5-0.3,0.7c-0.2,0.2-0.5,0.3-0.8,0.3h-2.2c-0.7,0.1-1.4-0.4-1.6-1.1
		c-0.1-0.6-0.1-1.2,0.1-1.8c0.1-0.7,0.4-1.3,0.8-1.9c0.5-0.6,1.3-0.9,2.1-0.8h1.7l0.4-1.8L44.4,26.8L44.4,26.8z M41.2,29.6
		c-0.4,0-0.9,0.2-1.2,0.5c-0.3,0.4-0.5,0.8-0.5,1.3c-0.1,0.4-0.2,0.8-0.1,1.3c0.1,0.4,0.6,0.7,1,0.6h1c0.1,0,0.2,0,0.3-0.1
		c0.1-0.1,0.2-0.2,0.2-0.4l0.7-3.2L41.2,29.6L41.2,29.6z"/>
	<path class="st0" d="M49,26.8l-0.4,1.8h1.7c0.7-0.1,1.5,0.3,1.8,0.9c0.2,0.6,0.2,1.3,0,1.9c-0.1,0.7-0.4,1.3-0.8,1.9
		c-0.5,0.6-1.3,1-2.1,0.9h-1.8c-0.3,0.1-0.6,0-0.8-0.2c-0.1-0.2-0.2-0.5-0.1-0.7l1.4-6.5L49,26.8L49,26.8z M47.7,32.8
		c0,0.1,0,0.3,0,0.4c0.1,0.1,0.2,0.1,0.3,0.1H49c0.5,0,1-0.2,1.3-0.6c0.2-0.4,0.4-0.8,0.4-1.2c0.1-0.4,0.2-0.9,0.1-1.3
		c-0.1-0.4-0.6-0.7-1-0.6h-1.4L47.7,32.8z"/>
	<path class="st0" d="M54,36.1h-1.3l1.2-1.8l-1.3-5.6h1.3l0.9,4.3l2.8-4.3h1.3L54,36.1z"/>
</g>
<g>
	<path class="st4" d="M41.5,2h4.3v15.3c0,0.9-0.5,1.7-1.3,2c-0.3,0.1-0.5,0.2-0.8,0.2c-0.6,0-1.1-0.3-1.5-0.6L27.8,8.4v11h-4.3V4.2
		c0-0.9,0.5-1.7,1.3-2c0.8-0.3,1.6-0.1,2.4,0.5L41.5,13V2z M67.7,10.1C67.2,9.6,66.7,9.3,66,9c-0.7-0.3-1.4-0.4-2.1-0.4H52.4
		c-0.6,0-1.1-0.5-1.1-1.1s0.5-1.1,1.1-1.1H66c1.2,0,2.2-1,2.2-2.2S67.2,2,66,2H52.4c-0.7,0-1.4,0.1-2.1,0.4
		c-0.6,0.3-1.2,0.7-1.7,1.2c-0.5,0.5-0.9,1.1-1.2,1.7c-0.3,0.7-0.4,1.4-0.4,2.1s0.1,1.4,0.4,2.1c0.3,0.6,0.7,1.2,1.2,1.7
		c0.5,0.5,1.1,0.9,1.7,1.2c0.7,0.3,1.4,0.4,2.1,0.4h11.5v0c0.6,0,1.1,0.5,1.1,1.1c0,0.6-0.5,1.1-1.1,1.1H49.1c-1.2,0-2.2,1-2.2,2.2
		s1,2.2,2.2,2.2h14.8c0.7,0,1.4-0.1,2.1-0.4c0.6-0.3,1.2-0.7,1.7-1.2c0.5-0.5,0.9-1.1,1.2-1.7c0.3-0.7,0.4-1.4,0.4-2.1
		c0-0.7-0.1-1.4-0.4-2.1C68.6,11.2,68.2,10.6,67.7,10.1z M22.4,10.7c0,4.8-3.9,8.7-8.7,8.7H3.6h-2H0v-8.7V2h13.7
		C18.5,2,22.4,5.9,22.4,10.7z M18.1,10.7c0-1.2-0.5-2.3-1.3-3.1c-0.8-0.8-1.9-1.3-3.1-1.3H4.4v4.4v4.4h9.4c1.2,0,2.3-0.5,3.1-1.3
		C17.6,13,18.1,11.9,18.1,10.7z"/>
	<g>
		<g>
			<path class="st4" d="M78.3,15.5c-0.4-0.3-1-0.5-1.8-0.5h-0.9v-1h1.9c0.3,0,0.5-0.1,0.6-0.3c0.1-0.2,0.2-0.3,0.2-0.6
				c0-0.2-0.1-0.4-0.2-0.6c-0.2-0.2-0.4-0.3-0.6-0.3h-2.8c-0.3,0-0.5,0.1-0.7,0.2c-0.2,0.2-0.3,0.4-0.3,0.7v5.3
				c0,0.3,0.1,0.5,0.3,0.7c0.2,0.2,0.4,0.2,0.7,0.2h1.9c0.7,0,1.3-0.2,1.7-0.6c0.4-0.4,0.7-0.9,0.7-1.7C79,16.5,78.7,15.9,78.3,15.5
				z M77.2,17.2c0,0.2-0.1,0.3-0.2,0.5c-0.1,0.1-0.3,0.2-0.5,0.2h-0.9v-1.2h0.8C77.1,16.6,77.2,16.9,77.2,17.2z"/>
			<path class="st4" d="M85.9,12.4c-0.2,0-0.5,0.1-0.6,0.2C85.1,12.8,85,13,85,13.3v5.2c0,0.3,0.1,0.5,0.3,0.7
				c0.2,0.2,0.4,0.2,0.6,0.2c0.3,0,0.5-0.1,0.6-0.2c0.2-0.2,0.3-0.4,0.3-0.7v-5.2c0-0.3-0.1-0.5-0.3-0.7
				C86.3,12.4,86.1,12.4,85.9,12.4z"/>
			<path class="st4" d="M83.9,15.5c-0.4-0.4-1-0.5-1.8-0.5h-0.8v-1.7c0-0.3-0.1-0.5-0.3-0.7c-0.2-0.2-0.4-0.2-0.6-0.2
				s-0.5,0.1-0.6,0.2c-0.2,0.2-0.3,0.4-0.3,0.7v5.2c0,0.3,0.1,0.5,0.3,0.7c0.2,0.2,0.4,0.2,0.7,0.2h1.8c0.7,0,1.3-0.2,1.7-0.6
				c0.4-0.4,0.7-1,0.7-1.7C84.6,16.4,84.4,15.9,83.9,15.5z M82.8,17.1c0,0.2-0.1,0.4-0.2,0.5c-0.1,0.1-0.3,0.2-0.5,0.2h-0.8v-1.2H82
				c0.3,0,0.5,0.1,0.6,0.2C82.7,16.8,82.8,17,82.8,17.1z"/>
			<path class="st4" d="M92,12.6c-0.2-0.2-0.4-0.3-0.6-0.3H88c-0.2,0-0.4,0.1-0.6,0.3c-0.1,0.2-0.2,0.4-0.2,0.6
				c0,0.2,0.1,0.4,0.2,0.6c0.1,0.2,0.4,0.3,0.6,0.3h0.8v4.5c0,0.3,0.1,0.5,0.3,0.7c0.2,0.2,0.4,0.2,0.6,0.2s0.5-0.1,0.6-0.2
				c0.2-0.2,0.3-0.4,0.3-0.7V14h0.8c0.3,0,0.5-0.1,0.6-0.3c0.1-0.2,0.2-0.3,0.2-0.6C92.3,13,92.2,12.8,92,12.6z"/>
			<path class="st4" d="M95.6,12.4c-1,0-1.8,0.3-2.4,1c-0.6,0.7-0.9,1.5-0.9,2.5c0,1,0.3,1.8,0.9,2.5c0.6,0.7,1.5,1,2.4,1
				c1,0,1.8-0.3,2.4-1c0.6-0.7,0.9-1.5,0.9-2.5c0-1-0.3-1.8-0.9-2.5C97.4,12.7,96.6,12.4,95.6,12.4z M94.4,14.5
				c0.3-0.4,0.7-0.6,1.1-0.6c0.5,0,0.9,0.2,1.1,0.6c0.3,0.3,0.4,0.8,0.4,1.3c0,0.6-0.1,1-0.4,1.3c-0.3,0.4-0.7,0.5-1.2,0.5
				c-0.5,0-0.9-0.2-1.2-0.5c-0.3-0.3-0.4-0.8-0.4-1.3C94,15.3,94.2,14.9,94.4,14.5z"/>
			<path class="st4" d="M103.7,15.5c0.4-0.3,0.6-0.8,0.6-1.3c0-0.5-0.2-1-0.6-1.3c-0.4-0.3-0.8-0.5-1.4-0.5h-1.8
				c-0.3,0-0.5,0.1-0.7,0.2c-0.2,0.2-0.3,0.4-0.3,0.7v5.3c0,0.3,0.1,0.5,0.3,0.7c0.2,0.2,0.4,0.2,0.7,0.2h1.9c0.7,0,1.3-0.2,1.7-0.6
				c0.4-0.4,0.7-0.9,0.7-1.7c0-0.5-0.2-0.9-0.5-1.2C104.2,15.8,103.9,15.6,103.7,15.5z M103,17.2c0,0.2-0.1,0.3-0.2,0.5
				c-0.1,0.1-0.3,0.2-0.5,0.2h-0.9v-1.2h0.8C102.9,16.6,103,16.9,103,17.2z M101.4,15v-1h0.5c0.2,0,0.3,0,0.4,0.1
				c0.1,0.1,0.1,0.2,0.1,0.3c0,0.2,0,0.3-0.1,0.4c-0.1,0.1-0.2,0.1-0.4,0.1H101.4z"/>
			<path class="st4" d="M111.1,18.2l-1.8-5c-0.2-0.6-0.6-0.9-1.2-0.9c-0.6,0-0.9,0.3-1.2,0.9l-1.9,5l0,0.1c0,0.1,0,0.2,0,0.2
				c0,0.2,0.1,0.5,0.3,0.6c0.2,0.2,0.4,0.2,0.6,0.2c0.4,0,0.7-0.2,0.9-0.6l0.2-0.7h2.3l0.2,0.7c0.1,0.4,0.4,0.6,0.9,0.6
				c0.2,0,0.4-0.1,0.6-0.2c0.2-0.2,0.3-0.4,0.3-0.6c0,0,0-0.1,0-0.2C111.2,18.4,111.2,18.3,111.1,18.2z M108.8,16.4h-1.2l0.6-1.9
				L108.8,16.4z"/>
			<path class="st4" d="M115.8,12.4h-1.6c-1.6,0-2.5,0.8-2.5,2.3c0,0.5,0.2,1,0.6,1.4c0.3,0.2,0.6,0.4,1,0.5l-1.3,1.4
				c-0.2,0.2-0.2,0.4-0.2,0.5c0,0.2,0.1,0.5,0.2,0.6c0.3,0.3,0.6,0.4,1,0.2c0.1,0,0.2-0.1,0.3-0.2l1.7-2.1v1.5
				c0,0.3,0.1,0.5,0.3,0.7c0.2,0.2,0.4,0.2,0.6,0.2c0.2,0,0.5-0.1,0.6-0.2c0.2-0.2,0.3-0.4,0.3-0.7v-5.2
				C116.7,12.7,116.4,12.4,115.8,12.4z M113.7,14.2c0.1-0.1,0.3-0.2,0.5-0.2h0.8v1.3h-0.8c-0.2,0-0.4-0.1-0.5-0.2
				c-0.1-0.1-0.2-0.3-0.2-0.5C113.5,14.5,113.6,14.3,113.7,14.2z"/>
			<path class="st4" d="M124.3,12.4h-3.4c-0.2,0-0.4,0.1-0.6,0.3c-0.1,0.2-0.2,0.4-0.2,0.6c0,0.2,0.1,0.4,0.2,0.6
				c0.1,0.2,0.4,0.3,0.6,0.3h0.8v4.5c0,0.3,0.1,0.5,0.3,0.7c0.2,0.2,0.4,0.2,0.6,0.2c0.2,0,0.5-0.1,0.6-0.2c0.2-0.2,0.3-0.4,0.3-0.7
				V14h0.8c0.3,0,0.5-0.1,0.6-0.3c0.1-0.2,0.2-0.3,0.2-0.6c0-0.2-0.1-0.4-0.2-0.6C124.7,12.4,124.5,12.4,124.3,12.4z"/>
			<path class="st4" d="M128.8,17.7h-1.5v-1h1.3c0.3,0,0.5-0.1,0.7-0.3c0.1-0.2,0.2-0.3,0.2-0.6c0-0.2-0.1-0.4-0.2-0.6
				c-0.2-0.2-0.4-0.3-0.7-0.3h-1.3v-1h1.4c0.3,0,0.5-0.1,0.6-0.3c0.1-0.2,0.2-0.3,0.2-0.6c0-0.2-0.1-0.4-0.2-0.6
				c-0.2-0.2-0.4-0.3-0.6-0.3h-2.3c-0.6,0-0.9,0.4-0.9,1v5.2c0,0.3,0.1,0.5,0.3,0.7c0.2,0.2,0.4,0.3,0.6,0.3h2.4
				c0.3,0,0.5-0.1,0.6-0.3c0.1-0.2,0.2-0.3,0.2-0.6c0-0.2-0.1-0.4-0.2-0.6C129.3,17.8,129.1,17.7,128.8,17.7z"/>
			<path class="st4" d="M135.8,18l-1.7-2.3l1.4-1.9c0.1-0.2,0.2-0.3,0.2-0.5c0-0.3-0.1-0.5-0.3-0.6c-0.2-0.2-0.4-0.2-0.6-0.2
				c-0.3,0-0.6,0.1-0.8,0.4l-1,1.4l-1-1.4c-0.2-0.3-0.5-0.4-0.8-0.4c-0.2,0-0.5,0.1-0.6,0.2c-0.2,0.2-0.3,0.4-0.3,0.6
				c0,0.2,0.1,0.4,0.2,0.5l1.4,1.9l-1.7,2.3c-0.1,0.1-0.1,0.2-0.1,0.2c0,0.1-0.1,0.2-0.1,0.3c0,0.3,0.1,0.5,0.3,0.6
				c0.2,0.2,0.4,0.2,0.6,0.2c0.3,0,0.5-0.1,0.7-0.4l1.4-1.9l1.4,1.9c0.2,0.3,0.4,0.4,0.7,0.4c0.3,0,0.5-0.1,0.6-0.2
				c0.2-0.2,0.3-0.4,0.3-0.6c0-0.1,0-0.2-0.1-0.3C135.9,18.2,135.9,18.1,135.8,18z"/>
			<path class="st4" d="M141.7,12.4c-0.2,0-0.5,0.1-0.6,0.2c-0.2,0.2-0.3,0.4-0.3,0.7V15h-2.5v-1.8c0-0.3-0.1-0.5-0.3-0.7
				c-0.2-0.2-0.4-0.2-0.6-0.2s-0.5,0.1-0.6,0.2c-0.2,0.2-0.3,0.4-0.3,0.7v5.2c0,0.3,0.1,0.5,0.3,0.7c0.2,0.2,0.4,0.2,0.6,0.2
				s0.5-0.1,0.6-0.2c0.2-0.2,0.3-0.4,0.3-0.7v-1.8h2.5v1.8c0,0.3,0.1,0.5,0.3,0.7c0.2,0.2,0.4,0.2,0.6,0.2s0.5-0.1,0.6-0.2
				c0.2-0.2,0.3-0.4,0.3-0.7v-5.2c0-0.3-0.1-0.5-0.3-0.7C142.2,12.4,142,12.4,141.7,12.4z"/>
			<path class="st4" d="M148.8,12.4c-0.3,0-0.5,0.1-0.7,0.4l-2.7,3.5v-2.9c0-0.3-0.1-0.5-0.3-0.7c-0.2-0.2-0.4-0.2-0.6-0.2
				s-0.5,0.1-0.6,0.2c-0.2,0.2-0.3,0.4-0.3,0.7v5.2c0,0.3,0.1,0.5,0.3,0.7c0.2,0.2,0.4,0.2,0.6,0.2c0.3,0,0.5-0.1,0.7-0.4l2.7-3.4
				v2.9c0,0.3,0.1,0.5,0.3,0.7c0.2,0.2,0.4,0.2,0.6,0.2c0.2,0,0.5-0.1,0.6-0.2c0.2-0.2,0.3-0.4,0.3-0.7v-5.2c0-0.3-0.1-0.5-0.3-0.7
				C149.2,12.4,149,12.4,148.8,12.4z"/>
			<path class="st4" d="M153.8,15.7l1.6-1.6c0.3-0.3,0.5-0.6,0.5-0.9c0-0.2-0.1-0.5-0.3-0.6c-0.3-0.3-0.7-0.3-1-0.1
				c-0.1,0.1-0.2,0.1-0.3,0.2l-1.9,2.1v-1.5c0-0.3-0.1-0.5-0.3-0.6c-0.2-0.2-0.4-0.2-0.6-0.2c-0.3,0-0.5,0.1-0.6,0.3
				c-0.2,0.2-0.3,0.4-0.3,0.6v5.3c0,0.3,0.1,0.5,0.3,0.6c0.2,0.2,0.4,0.2,0.6,0.2c0.3,0,0.5-0.1,0.6-0.3c0.2-0.2,0.3-0.4,0.3-0.6
				v-1.9l2.1,2.2c0.3,0.3,0.6,0.5,0.8,0.5c0.2,0,0.5-0.1,0.6-0.2c0.2-0.2,0.3-0.4,0.3-0.6c0-0.3-0.1-0.5-0.4-0.8L153.8,15.7z"/>
			<path class="st4" d="M162.7,18.5c0-0.1,0-0.2-0.1-0.2l-1.8-5c-0.2-0.6-0.6-0.9-1.2-0.9c-0.6,0-0.9,0.3-1.2,0.9l-1.9,5l0,0.1
				c0,0.1,0,0.2,0,0.2c0,0.2,0.1,0.5,0.3,0.6c0.2,0.2,0.4,0.2,0.6,0.2c0.4,0,0.7-0.2,0.9-0.6l0.2-0.7h2.3l0.2,0.7
				c0.1,0.4,0.4,0.6,0.9,0.6c0.2,0,0.4-0.1,0.6-0.2c0.2-0.2,0.3-0.4,0.3-0.6C162.7,18.6,162.7,18.5,162.7,18.5z M160.3,16.4H159
				l0.6-1.9L160.3,16.4z"/>
		</g>
		<g>
			<path class="st4" d="M87.3,2.9c0-0.3-0.1-0.5-0.3-0.7C86.9,2.1,86.7,2,86.5,2c-0.3,0-0.5,0.1-0.7,0.4l-2.7,3.5V2.9
				c0-0.3-0.1-0.5-0.3-0.7C82.6,2.1,82.4,2,82.2,2c-0.2,0-0.5,0.1-0.6,0.2c-0.2,0.2-0.3,0.4-0.3,0.7v5.2c0,0.3,0.1,0.5,0.3,0.7
				c0.2,0.2,0.4,0.2,0.6,0.2c0.3,0,0.5-0.1,0.7-0.4l2.7-3.4v2.9c0,0.3,0.1,0.5,0.3,0.7C86,9,86.2,9.1,86.5,9.1
				c0.2,0,0.5-0.1,0.6-0.2c0.2-0.2,0.3-0.4,0.3-0.7V2.9z"/>
			<path class="st4" d="M90.5,8.3c0.1,0,0.2,0,0.3,0c0,0,0.1,0,0.1,0c0,0.3,0.1,0.5,0.3,0.6c0.2,0.2,0.4,0.2,0.6,0.2
				c0.3,0,0.5-0.1,0.6-0.2c0.2-0.2,0.2-0.4,0.3-0.6c0,0,0.1,0,0.1,0c0.1,0,0.3,0,0.3,0c0.7,0,1.4-0.3,1.8-0.8
				c0.5-0.5,0.7-1.2,0.7-1.9c0-0.8-0.2-1.4-0.7-1.9c-0.5-0.5-1.1-0.8-1.9-0.8c-0.1,0-0.2,0-0.3,0c0,0-0.1,0-0.1,0
				c0-0.2-0.1-0.4-0.3-0.5C92.3,2.1,92.1,2,91.8,2c-0.2,0-0.5,0.1-0.6,0.2C91.1,2.4,91,2.6,91,2.8c0,0-0.1,0-0.1,0
				c-0.2,0-0.3,0-0.4,0c-0.7,0-1.4,0.3-1.9,0.8c-0.5,0.5-0.7,1.2-0.7,1.9c0,0.8,0.2,1.4,0.7,1.9C89.1,8,89.8,8.3,90.5,8.3z
				 M89.8,5.5c0-0.3,0.1-0.6,0.3-0.8c0.2-0.2,0.5-0.3,0.8-0.3c0,0,0.1,0,0.2,0l0,2.1c-0.1,0-0.1,0-0.2,0c-0.3,0-0.5-0.1-0.8-0.3
				C89.9,6.1,89.8,5.8,89.8,5.5z M92.7,6.6V4.4l0,0c0.1,0,0.1,0,0.1,0c0.3,0,0.5,0.1,0.7,0.3c0.2,0.2,0.3,0.5,0.3,0.8
				c0,0.3-0.1,0.6-0.3,0.8c-0.2,0.2-0.5,0.3-0.8,0.3C92.8,6.6,92.8,6.6,92.7,6.6L92.7,6.6z"/>
			<path class="st4" d="M101.5,4.4c0-0.7-0.2-1.3-0.7-1.8C100.3,2.2,99.6,2,98.9,2h-1.6c-0.6,0-0.9,0.3-0.9,0.9v5.2
				c0,0.3,0.1,0.5,0.3,0.7C96.8,9,97,9.1,97.2,9.1s0.5-0.1,0.6-0.2c0.2-0.2,0.3-0.4,0.3-0.7V6.8H99c0.7,0,1.3-0.2,1.8-0.6
				C101.2,5.7,101.5,5.1,101.5,4.4z M99.6,4.4c0,0.2-0.1,0.4-0.2,0.6c-0.1,0.2-0.3,0.2-0.5,0.2h-0.7V3.6h0.7c0.2,0,0.4,0.1,0.6,0.2
				C99.6,4,99.6,4.2,99.6,4.4z"/>
			<path class="st4" d="M105.2,9.1c1,0,1.8-0.3,2.4-1c0.6-0.7,0.9-1.5,0.9-2.5c0-1-0.3-1.8-0.9-2.5c-0.6-0.7-1.5-1-2.4-1
				c-1,0-1.8,0.3-2.4,1c-0.6,0.7-0.9,1.5-0.9,2.5c0,1,0.3,1.8,0.9,2.5C103.4,8.7,104.2,9.1,105.2,9.1z M104,4.2
				c0.3-0.4,0.7-0.6,1.1-0.6c0.5,0,0.9,0.2,1.1,0.6c0.3,0.3,0.4,0.8,0.4,1.3c0,0.6-0.1,1-0.4,1.3c-0.3,0.4-0.7,0.5-1.2,0.5
				c-0.5,0-0.9-0.2-1.2-0.5c-0.3-0.3-0.4-0.8-0.4-1.3C103.7,5,103.8,4.5,104,4.2z"/>
			<path class="st4" d="M110.2,9.1h1.9c0.7,0,1.3-0.2,1.7-0.6c0.4-0.4,0.7-0.9,0.7-1.7c0-0.5-0.2-0.9-0.5-1.2
				c-0.2-0.2-0.4-0.4-0.7-0.5c0.4-0.3,0.6-0.8,0.6-1.3c0-0.5-0.2-1-0.6-1.3C113,2.2,112.5,2,111.9,2h-1.8c-0.3,0-0.5,0.1-0.7,0.2
				c-0.2,0.2-0.3,0.4-0.3,0.7v5.3c0,0.3,0.1,0.5,0.3,0.7C109.7,9,109.9,9.1,110.2,9.1z M111,7.4V6.3h0.8c0.7,0,0.8,0.3,0.8,0.5
				c0,0.2-0.1,0.3-0.2,0.5c-0.1,0.1-0.3,0.2-0.5,0.2H111z M111,4.6v-1h0.5c0.2,0,0.3,0,0.4,0.1c0.1,0.1,0.1,0.2,0.1,0.3
				c0,0.2,0,0.3-0.1,0.4c-0.1,0.1-0.2,0.1-0.4,0.1H111z"/>
			<path class="st4" d="M120.8,8.3c0,0,0-0.1,0-0.2c0-0.1,0-0.2-0.1-0.2l-1.8-5c-0.2-0.6-0.6-0.9-1.2-0.9c-0.6,0-0.9,0.3-1.2,0.9
				l-1.9,5l0,0.1c0,0.1,0,0.2,0,0.2c0,0.2,0.1,0.5,0.3,0.6c0.2,0.2,0.4,0.2,0.6,0.2c0.4,0,0.7-0.2,0.9-0.6l0.2-0.7h2.3l0.2,0.7
				c0.1,0.4,0.4,0.6,0.9,0.6c0.2,0,0.4-0.1,0.6-0.2C120.8,8.7,120.8,8.5,120.8,8.3z M118.4,6.1h-1.2l0.6-1.9L118.4,6.1z"/>
			<path class="st4" d="M126.3,8.1V2.9c0-0.6-0.3-0.9-0.9-0.9h-1.6c-1.6,0-2.5,0.8-2.5,2.3c0,0.5,0.2,1,0.6,1.4
				c0.3,0.2,0.6,0.4,1,0.5l-1.3,1.4c-0.2,0.2-0.2,0.4-0.2,0.5c0,0.2,0.1,0.5,0.2,0.6c0.3,0.3,0.6,0.4,1,0.2c0.1,0,0.2-0.1,0.3-0.2
				l1.7-2.1v1.5c0,0.3,0.1,0.5,0.3,0.7c0.2,0.2,0.4,0.2,0.6,0.2c0.2,0,0.5-0.1,0.6-0.2C126.2,8.7,126.3,8.4,126.3,8.1z M123.3,3.8
				c0.1-0.1,0.3-0.2,0.5-0.2h0.8v1.3h-0.8c-0.2,0-0.4-0.1-0.5-0.2c-0.1-0.1-0.2-0.3-0.2-0.5C123.1,4.1,123.2,3.9,123.3,3.8z"/>
			<path class="st4" d="M135.4,2c-0.3,0-0.5,0.1-0.7,0.4L132,5.8V2.9c0-0.3-0.1-0.5-0.3-0.7c-0.2-0.2-0.4-0.2-0.6-0.2
				s-0.5,0.1-0.6,0.2c-0.2,0.2-0.3,0.4-0.3,0.7v5.2c0,0.3,0.1,0.5,0.3,0.7c0.2,0.2,0.4,0.2,0.6,0.2c0.3,0,0.5-0.1,0.7-0.4l2.7-3.4
				v2.9c0,0.3,0.1,0.5,0.3,0.7c0.2,0.2,0.4,0.2,0.6,0.2s0.5-0.1,0.6-0.2c0.2-0.2,0.3-0.4,0.3-0.7V2.9c0-0.3-0.1-0.5-0.3-0.7
				C135.8,2.1,135.6,2,135.4,2z"/>
			<path class="st4" d="M80.5,10c0.2-0.2,0.3-0.4,0.3-0.7v-1c0-0.3-0.1-0.5-0.3-0.7c-0.2-0.2-0.4-0.2-0.6-0.2h0V2.9
				c0-0.3-0.1-0.5-0.3-0.7C79.4,2.1,79.2,2,79,2c-0.2,0-0.5,0.1-0.6,0.2c-0.2,0.2-0.3,0.4-0.3,0.7v4.5h-2.5V2.9
				c0-0.3-0.1-0.5-0.3-0.7C75.2,2.1,74.9,2,74.7,2c-0.2,0-0.5,0.1-0.6,0.2c-0.2,0.2-0.3,0.4-0.3,0.7v5.2c0,0.3,0.1,0.5,0.3,0.7
				c0.2,0.2,0.4,0.2,0.6,0.2H79v0.3c0,0.3,0.1,0.5,0.3,0.7c0.2,0.2,0.4,0.2,0.6,0.2C80.2,10.3,80.4,10.2,80.5,10z"/>
		</g>
	</g>
</g>
</svg>
