<svg width="642" height="211" viewBox="0 0 642 211" fill="none" xmlns="http://www.w3.org/2000/svg">
<path d="M36.152 210.32C29.816 210.32 23.096 209.648 15.992 208.304C9.08 207.152 3.896 205.616 0.440002 203.696V158.768C3.32 160.112 6.968 161.168 11.384 161.936C15.992 162.704 20.6 163.088 25.208 163.088C33.656 163.088 39.608 161.36 43.064 157.904C46.52 154.256 48.248 148.304 48.248 140.048V4.68798H99.224V145.808C99.224 165.584 93.848 181.328 83.096 193.04C72.344 204.56 56.696 210.32 36.152 210.32Z" fill="black"/>
<path d="M226.144 210.32C205.792 210.32 187.36 205.904 170.848 197.072C154.528 188.24 141.568 175.952 131.968 160.208C122.56 144.272 117.856 126.032 117.856 105.488C117.856 84.944 122.56 66.704 131.968 50.768C141.568 34.832 154.528 22.448 170.848 13.616C187.36 4.78398 205.792 0.367981 226.144 0.367981C246.304 0.367981 264.544 4.78398 280.864 13.616C297.376 22.448 310.336 34.832 319.744 50.768C329.152 66.704 333.856 84.944 333.856 105.488C333.856 126.032 329.152 144.272 319.744 160.208C310.336 175.952 297.376 188.24 280.864 197.072C264.544 205.904 246.304 210.32 226.144 210.32ZM226.144 162.512C236.32 162.512 245.632 160.208 254.08 155.6C262.528 150.992 269.248 144.368 274.24 135.728C279.232 127.088 281.728 117.008 281.728 105.488C281.728 93.968 279.232 83.984 274.24 75.536C269.44 66.896 262.816 60.272 254.368 55.664C245.92 50.864 236.512 48.464 226.144 48.464C215.584 48.464 206.08 50.864 197.632 55.664C189.184 60.272 182.464 66.896 177.472 75.536C172.672 83.984 170.272 93.968 170.272 105.488C170.272 117.008 172.672 127.088 177.472 135.728C182.464 144.368 189.184 150.992 197.632 155.6C206.272 160.208 215.776 162.512 226.144 162.512Z" fill="black"/>
<path d="M389.096 61.424L348.2 91.088V40.976L397.736 4.68798H440.072V206H389.096V61.424Z" fill="#FFCD00"/>
<path d="M465.897 4.68798H516.297L590.314 124.496V4.68798H641.289V206H591.177L516.874 85.904V206H465.897V4.68798Z" fill="black"/>
</svg>
