<?xml version="1.0" encoding="UTF-8"?>
<svg width="262px" height="284px" viewBox="0 0 262 284" version="1.1" xmlns="http://www.w3.org/2000/svg" xmlns:xlink="http://www.w3.org/1999/xlink">
    <!-- Generator: Sketch 41.2 (35397) - http://www.bohemiancoding.com/sketch -->
    <title>Group</title>
    <desc>Created with Sketch.</desc>
    <defs></defs>
    <g id="Page-1" stroke="none" stroke-width="1" fill="none" fill-rule="evenodd">
        <g id="logotype-(1)">
            <g id="Group">
                <g id="Shape">
                    <path d="M255,0.5 C207.1,20.5 173.6,68 173.6,123.2 C173.6,164.9 192.8,202.6 223.5,226.7 C205.1,203.8 194,175.2 194,143.7 C194,93.8 221.4,50.4 261.9,27.9 L255,0.5 Z" fill="#00ABEB"></path>
                    <path d="M133.5,111.7 C95,133.8 50.5,134.6 12.8,117.8 C7.9,126 3.8,134.6 0.5,143.6 C39,162.8 86,162.8 126.1,139.5 C162.5,118.6 185,83 191.1,44.6 C180.5,72 160.9,96.2 133.5,111.7 Z" fill="#B3272D"></path>
                    <path d="M202.2,283.5 C211.6,283.9 221,283.5 230.4,281.9 C228.4,238.1 205,196.4 164.1,172.7 C127.7,151.8 85.6,149.8 49.6,164.1 C78.6,159.6 108.9,164.5 136.3,180.5 C175.2,202.5 198.5,241.8 202.2,283.5 Z" fill="#32A357"></path>
                </g>
            </g>
        </g>
    </g>
</svg>