<?xml version="1.0" encoding="utf-8"?>
<!-- Generator: Adobe Illustrator 19.2.0, SVG Export Plug-In . SVG Version: 6.00 Build 0)  -->
<svg version="1.1" id="Layer_1" xmlns="http://www.w3.org/2000/svg" xmlns:xlink="http://www.w3.org/1999/xlink" x="0px" y="0px"
	 viewBox="0 0 1143.3 289.6" style="enable-background:new 0 0 1143.3 289.6;" xml:space="preserve">
<style type="text/css">
	.st0{fill: #e0e0e0;}
	.st1{fill:url(#SVGID_1_);}
	.st2{fill:url(#SVGID_2_);}
	.st3{fill:url(#SVGID_3_);}
</style>
<title>mc_logo22</title>
<g>
	<g>
		<path class="st0" d="M595.3,177.8c-9.1,14.7-16.2,23.3-33.8,23.3c-19.1,0-21.1-11.1-23.1-23.3L517.1,48.1
			c-0.3-2.2-1.7-6.4-3.4-6.4c-3.1,0-4.3,5-4.5,5.8l-33.8,151.4h-37.6L477,27.8c5.8-25.3,32.3-25.6,38-25.6c23.1,0,27,11.4,29.3,25
			l21.9,129.7c0.8,4.2,2,7.2,3.8,7.2c1.7,0,4.4-3.1,7.1-7.2l81.3-129.7c13.6-21.9,26.5-25,40.8-25c18.5,0,30.4,7.8,26.3,25.6
			l-39.2,171.1h-37.6l35.8-151.4c1.2-5.3-0.9-5.8-2.1-5.8c-2,0-4.9,4.2-6.3,6.4L595.3,177.8z"/>
		<path class="st0" d="M798.5,198.9c-19.1,0-44.4-2.5-58.3-22.8c-14.1-20.5-8.7-50.3-3.8-71.6c6.4-27.8,15.5-56.4,36.7-75.5
			c25.2-22.8,56.6-24.4,70.8-24.4h101.8L939,33.6h-84.1c-22.2,0-41.3,1.4-56.6,18c-7.9,8.6-16.4,23.3-23.1,52.2
			c-6.7,29.2-4,41.1-1.4,47.2c6.8,15.3,24.2,18.6,47.9,18.6h89.2l-6.7,29.2H798.5z"/>
	</g>
	<g>
		<path class="st0" d="M451,250.8c-1.6-1.7-3.8-1.8-6.1-1.8h-13.6c-0.7,0-2.5,0.1-3.6,0.9c-1.2,0.9-1.5,2.3-1.7,3.1l-6.6,28.7h3.3
			l3-13.1h16.4c1.7,0,3.6-0.5,4.9-1.4c3-1.9,4.1-5.5,4.7-8C452.6,255.5,452.8,252.6,451,250.8z M431.2,252h13.4
			c2.6,0,3.5,0.9,3.8,1.3c0.4,0.6,0.8,2,0,5.2c-0.9,3.7-1.9,5.3-2.5,5.9c-0.6,0.5-1.9,1.4-4.7,1.4h-14.7l2.8-12.1
			C429.4,252.6,429.6,252,431.2,252z"/>
		<path class="st0" d="M467,256.5c-3.2,0-7,0.3-10,2.7c-2.6,2-4.4,5.3-5.4,9.8c-1.3,5.7-0.2,8.7,0.9,10.1c2.1,2.6,6.1,2.9,8.9,2.9
			c2.8,0,6.8-0.3,10.1-2.8c1.8-1.4,4.2-4.3,5.5-10c1-4.5,0.7-7.9-1-9.9C473.8,256.8,470.2,256.5,467,256.5z M461.8,279.1
			c-2.6,0-5.5-0.3-6.8-2.2h0c-1.4-2-0.6-5.5-0.2-7.4l0-0.1c0.5-2,1.3-5.8,3.7-7.9c2.2-1.9,5.4-2.1,8-2.1c2.5,0,5.6,0.2,6.9,2.1
			c1.4,2,0.5,5.8,0.1,7.8l0,0.1c-0.5,2-1.2,5.4-3.7,7.5C467.4,278.9,464.4,279.1,461.8,279.1z"/>
		<path class="st0" d="M510.6,256.8L500,278.4c-0.1,0.2-0.2,0.3-0.3,0.4c0-0.1,0-0.1,0-0.2l-0.8-19.7c-0.1-2.1-1.4-2.4-2.2-2.4
			c-0.9,0-2.1,0.4-3,2.2l-9.8,19.8c-0.1,0.2-0.2,0.3-0.2,0.3c0-0.1,0-0.2,0-0.3l-0.7-21.8h-3.2l1,22.9c0.1,1.6,0.8,2.4,2.3,2.4
			c1,0,2.4-0.4,3.3-2.3l9.5-19c0,0,0,0,0-0.1l0.8,18.9c0.1,2.1,1.6,2.4,2.4,2.4c1.9,0,2.7-1.3,3.2-2.2l11.5-23H510.6z"/>
		<path class="st0" d="M531.5,258.2c-1.8-1.2-4.4-1.4-6.2-1.4c-2.3,0-5.6,0.2-8.5,2.2c-3.8,2.6-5,6.7-5.8,10.3
			c-0.9,3.9-1.4,6.8,0,9.3c1.2,2.1,3.2,3.2,6.2,3.2h12.5l0.7-2.9h-12.7c-3.7,0-4.1-2.9-4.2-3.9c-0.1-1.1,0.3-3.1,0.6-4.5H529
			c1.2,0,2.3-0.3,3-0.8c0.9-0.6,1.5-1.8,1.9-3.4C534.8,262.7,533.9,259.9,531.5,258.2z M524.4,259.7c2.5,0,4.5,0.1,5.6,1.9
			c0.5,0.8,1,2.3,0.5,4.7c-0.2,0.9-0.5,1.3-1,1.3h-14.7c0.5-2,1-3.6,2.3-5.1C519.5,259.7,522.2,259.7,524.4,259.7z"/>
		<path class="st0" d="M549.2,259.7l0.7-2.9h-2.2c-2.8,0-5,0.7-6.8,2c-2.3,1.8-3.2,3.9-3.8,6.6l-3.7,16.4h3.2l3.6-15.7
			c0.4-1.6,1-3.6,2.3-4.8c1.6-1.4,3.4-1.6,4.9-1.6H549.2z"/>
		<path class="st0" d="M567.7,258.2c-1.8-1.2-4.4-1.4-6.2-1.4c-2.3,0-5.6,0.2-8.5,2.2c-3.8,2.6-5,6.7-5.8,10.3
			c-0.9,3.9-1.4,6.8,0,9.3c1.2,2.1,3.2,3.2,6.2,3.2h12.5l0.7-2.9h-12.7c-3.7,0-4.1-2.9-4.2-3.9c-0.1-1.1,0.3-3.1,0.6-4.5h14.9
			c1.2,0,2.3-0.3,3-0.8c0.9-0.6,1.5-1.8,1.9-3.4C570.9,262.7,570,259.9,567.7,258.2z M560.5,259.7c2.5,0,4.5,0.1,5.6,1.9
			c0.5,0.8,1,2.3,0.5,4.7c-0.2,0.9-0.5,1.3-1,1.3H551c0.5-2,1-3.6,2.3-5.1C555.6,259.7,558.3,259.7,560.5,259.7z"/>
		<path class="st0" d="M592.2,256.8h-7.3c-2.8,0-6.5,0.4-9.5,3.7c-2.4,2.5-3.2,5.4-3.8,8c-0.6,2.6-1.1,5.6-0.7,8
			c0.7,3.4,3.1,5.2,7.3,5.2h7.7c1.1,0,2.3-0.1,3.2-1l0,0c0.7-0.7,1.2-1.9,1.4-2.8l6.5-28.5l0.1-0.5h-3.2L592.2,256.8z M583.9,259.7
			h7.6l-4,17.4c-0.1,0.6-0.4,1.3-0.6,1.5c-0.2,0.2-0.7,0.3-1.3,0.3h-6.2c-3.1,0-4.8-1.1-5.2-3.4c-0.1-0.8-0.1-2.3,0.8-6.4
			c0.8-3.4,1.6-5.5,2.7-6.8C579.1,260.6,581.2,259.7,583.9,259.7z"/>
		<path class="st0" d="M620.8,256.8h-7.3l1.8-7.8H612l-6.5,28.5c-0.2,1-0.4,2.5,0.6,3.4c0.8,0.8,2.3,0.8,3.9,0.8h5.3
			c2.7,0,6.5-0.4,9.6-4.1c2-2.4,2.9-5.3,3.5-8c0.5-2,1.3-5.8,0.2-8.7C627.1,256.8,622.3,256.8,620.8,256.8z M625,270.2
			c-0.4,1.9-1,4-2.3,5.6c-2.4,3.1-5.9,3.1-7.4,3.1h-5.7c-0.8,0-1-0.2-1-0.2c-0.1-0.2,0-0.8,0.1-1.2l4.1-17.8h7.3
			c2.3,0,5,0.4,5.6,3.2C626.1,264.4,625.5,267.8,625,270.2z"/>
		<polygon class="st0" points="639.1,277.5 634.9,256.8 631.5,256.8 636.5,281.2 630.6,289.6 634.2,289.6 656.9,256.8 653.4,256.8 
					"/>
		<path class="st0" d="M708.2,249.6c-0.5-0.6-1.3-1-2.3-1c-2,0-3.2,1.2-4.6,3.3L684.2,278l-0.1,0.1c-0.1,0.2-0.4,0.7-0.7,0.7h0
			c-0.1-0.1-0.1-0.4-0.2-0.6l-5.2-26.2c-0.3-1.7-0.9-3.5-3.2-3.5c-2,0-3.7,1.4-4.2,3.3l-6.7,29.4l-0.1,0.5h3.3l6.8-29.7
			c0.1-0.5,0.4-0.5,0.4-0.5c0.1,0.1,0.3,0.4,0.3,0.6l5.2,26.2c0.3,1.6,0.8,3.8,2.9,3.8c1.9,0,3.1-1.7,4.4-3.6l17.2-26.2
			c0.2-0.3,0.7-0.7,0.8-0.7c0,0,0.1,0,0.1,0c0,0,0.1,0.1,0,0.3l-6.7,29.4l-0.1,0.5h3.3l6.8-29.7
			C708.9,251.1,708.7,250.3,708.2,249.6z"/>
		<path class="st0" d="M733,259.3c-2-2.5-5.6-2.8-8.9-2.8c-3.2,0-7,0.3-10,2.7c-2.6,2-4.4,5.3-5.4,9.8c-1.3,5.7-0.2,8.7,0.9,10.1
			c2.1,2.6,6.1,2.9,8.9,2.9c2.8,0,6.8-0.3,10.1-2.8c1.8-1.4,4.2-4.3,5.5-10C735,264.7,734.7,261.4,733,259.3z M719,279.1
			c-2.6,0-5.5-0.3-6.8-2.2c-1.4-2-0.6-5.5-0.2-7.4l0-0.1c0.5-2,1.3-5.8,3.7-7.9c2.2-1.9,5.4-2.1,8-2.1c2.5,0,5.6,0.2,6.9,2.1
			c1.4,2,0.5,5.8,0.1,7.8l0,0.1c-0.4,1.9-1.2,5.4-3.7,7.5C724.6,278.9,721.6,279.1,719,279.1z"/>
		<path class="st0" d="M752,256.8h-8.9c-0.8,0-2,0.1-2.9,1c-0.7,0.7-1,1.7-1.2,2.4l-4.9,21.5h3.2l4.9-21.5c0-0.1,0.1-0.4,0.2-0.5
			c0.1-0.1,0.3-0.1,0.4-0.1h8.8c1.6,0,2.7,0.2,3.4,1.3c0.5,0.9,0.5,2,0,4.1l-3.8,16.7h3.2l3.9-17.1c0.6-2.6,0.4-4.6-0.7-5.9
			C756.4,257,754.2,256.8,752,256.8z"/>
		<path class="st0" d="M780.8,258.2c-1.8-1.2-4.4-1.4-6.2-1.4c-2.3,0-5.6,0.2-8.5,2.2c-3.8,2.6-5,6.7-5.8,10.3
			c-0.9,3.9-1.4,6.8,0,9.3c1.2,2.1,3.2,3.2,6.2,3.2H779l0.7-2.9H767c-3.7,0-4.1-2.9-4.2-3.9c-0.1-1.1,0.3-3.1,0.6-4.5h14.9
			c1.2,0,2.3-0.3,3-0.8c0.9-0.6,1.5-1.8,1.9-3.4C784.1,262.7,783.2,259.9,780.8,258.2z M773.7,259.7c2.5,0,4.5,0.1,5.6,1.9
			c0.5,0.8,1,2.3,0.5,4.7c-0.2,0.9-0.5,1.3-1,1.3h-14.7c0.5-2,1-3.6,2.3-5.1C768.8,259.7,771.5,259.7,773.7,259.7z"/>
		<polygon class="st0" points="807.3,256.8 793,277.5 788.8,256.8 785.4,256.8 790.5,281.2 784.6,289.6 788.1,289.6 810.9,256.8 		
			"/>
		<path class="st0" d="M810.7,275.6c-0.3-1.3,0.1-4.1,0.5-5.6c0.3-1.1,1.1-4.3,1.7-5.6c1.5-3,4.4-4.7,8-4.7h9l0.7-2.9h-8.9
			c-3.4,0-6.3,0.9-8.6,2.8c-3.3,2.7-4.4,6.5-5.2,10c-0.9,4-1.2,6.7,0.3,9c0.9,1.5,2.9,3.2,6.9,3.2h10.2l0.7-2.9h-9.2
			C813.2,278.9,811.2,277.8,810.7,275.6z"/>
		<path class="st0" d="M851.8,258.6c-0.8-1.1-2.5-1.9-4.3-1.9H835l-0.7,2.9h12.5c0.9,0,1.7,0.3,2.1,0.9c0.4,0.6,0.4,1.8,0.2,2.6
			l-0.8,3.3h-10.5c-2.1,0-3.8,0.4-5.2,1.3c-2.3,1.6-3.1,4-3.5,5.9c-0.7,3.2-0.5,5.5,0.8,6.8c1.2,1.1,2.9,1.2,4.5,1.2h9.6
			c0.9,0,2.2,0,3.2-0.8c1.1-0.9,1.4-2.2,1.6-2.7l3.3-14.5C852.8,261.5,852.6,259.8,851.8,258.6z M845.7,278.1
			c-0.1,0.3-0.1,0.4-0.4,0.6c-0.3,0.2-0.7,0.2-0.9,0.2h-10c-1,0-1.6-0.5-1.9-0.9c-0.6-1-0.1-3.2,0-3.9c0.4-1.8,0.9-2.9,1.6-3.6
			c0.5-0.5,1.5-1.1,2.7-1.1h10.9L845.7,278.1z"/>
		<path class="st0" d="M867.9,259.7l0.7-2.9h-2.2c-2.8,0-5,0.7-6.8,2c-2.3,1.8-3.2,3.9-3.8,6.6l-3.7,16.4h3.2l3.6-15.7
			c0.4-1.6,1-3.6,2.3-4.8c1.6-1.4,3.4-1.6,4.9-1.6H867.9z"/>
		<path class="st0" d="M886.3,258.2c-1.8-1.2-4.4-1.4-6.2-1.4c-2.3,0-5.6,0.2-8.5,2.2c-3.8,2.6-5,6.7-5.8,10.3
			c-0.9,3.9-1.4,6.8,0,9.3c1.2,2.1,3.2,3.2,6.2,3.2h12.5l0.7-2.9h-12.7c-3.7,0-4.1-2.9-4.2-3.9c-0.1-1.1,0.3-3.1,0.6-4.5h14.9
			c1.2,0,2.3-0.3,3-0.8c0.9-0.6,1.5-1.8,1.9-3.4C889.5,262.7,888.7,259.9,886.3,258.2z M879.2,259.7c2.5,0,4.5,0.1,5.6,1.9
			c0.5,0.8,1,2.3,0.5,4.7c-0.2,0.9-0.5,1.3-1,1.3h-14.7c0.5-2,1-3.6,2.3-5.1C874.3,259.7,877,259.7,879.2,259.7z"/>
	</g>
	<g>
		<linearGradient id="SVGID_1_" gradientUnits="userSpaceOnUse" x1="337.384" y1="192.4355" x2="201.3945" y2="101.7758">
			<stop  offset="0" style="stop-color:#444646"/>
			<stop  offset="3.027355e-02" style="stop-color:#4A5146"/>
			<stop  offset="0.142" style="stop-color:#5F7447"/>
			<stop  offset="0.2605" style="stop-color:#709148"/>
			<stop  offset="0.3861" style="stop-color:#7DA848"/>
			<stop  offset="0.522" style="stop-color:#86B849"/>
			<stop  offset="0.6757" style="stop-color:#8BC149"/>
			<stop  offset="0.8853" style="stop-color:#8DC449"/>
		</linearGradient>
		<path class="st1" d="M259.4,188.9c25.7,16.7,47.6,17.8,76,8.2c1.1-26.2-2.2-69.5-36.6-74.3c-35.7-5-63.5,0.1-97.7-18.8
			C202.6,140.2,230.5,170.2,259.4,188.9z"/>
		<linearGradient id="SVGID_2_" gradientUnits="userSpaceOnUse" x1="197.3959" y1="97.3401" x2="344.4559" y2="8.7012">
			<stop  offset="0" style="stop-color:#350D10"/>
			<stop  offset="4.652453e-02" style="stop-color:#4D1014"/>
			<stop  offset="0.1397" style="stop-color:#76141B"/>
			<stop  offset="0.2383" style="stop-color:#9A1821"/>
			<stop  offset="0.3415" style="stop-color:#B71B26"/>
			<stop  offset="0.4508" style="stop-color:#CE1E29"/>
			<stop  offset="0.5691" style="stop-color:#DE202C"/>
			<stop  offset="0.7029" style="stop-color:#E7212E"/>
			<stop  offset="0.8853" style="stop-color:#EA212E"/>
		</linearGradient>
		<path class="st2" d="M251.5,18.6c-19.4,14.3-36,36-46.4,60.3c23.8,15.8,59.4,35.4,83.2,7.6c21.3-25,28.9-55.6,59.7-72.3
			C314.3-8.1,279.8-2.3,251.5,18.6z"/>
		<linearGradient id="SVGID_3_" gradientUnits="userSpaceOnUse" x1="359.5518" y1="14.0295" x2="369.6244" y2="181.2347">
			<stop  offset="0" style="stop-color:#26244B"/>
			<stop  offset="5.954548e-03" style="stop-color:#25264E"/>
			<stop  offset="0.1037" style="stop-color:#1B4A77"/>
			<stop  offset="0.207" style="stop-color:#13699B"/>
			<stop  offset="0.3151" style="stop-color:#0C82B8"/>
			<stop  offset="0.4297" style="stop-color:#0796CF"/>
			<stop  offset="0.5538" style="stop-color:#03A3DF"/>
			<stop  offset="0.694" style="stop-color:#01ABE8"/>
			<stop  offset="0.8853" style="stop-color:#00AEEB"/>
		</linearGradient>
		<path class="st3" d="M406.5,101.9c0-29.1-18.9-57-41.1-74.8c-22.7,14.3-52.5,37.4-40.9,68.4c11.1,29.7,35.2,52.6,33.9,87.3
			C381.4,164.4,406.5,132.8,406.5,101.9z"/>
	</g>
</g>
</svg>
