<svg xmlns="http://www.w3.org/2000/svg" xmlns:xlink="http://www.w3.org/1999/xlink" viewBox="0 0 329.49 131.96"><defs><style>.cls-1{isolation:isolate;}.cls-2{fill:none;stroke:#231f20;stroke-miterlimit:10;}.cls-3{fill:#82c14a;}.cls-4{fill:#fff;}.cls-5{mix-blend-mode:multiply;}.cls-6{fill:url(#linear-gradient);}.cls-7{fill:url(#linear-gradient-2);}.cls-8{fill:url(#linear-gradient-3);}</style><linearGradient id="linear-gradient" x1="181.73" y1="145.72" x2="169.37" y2="137.48" gradientUnits="userSpaceOnUse"><stop offset="0" stop-color="#454747"/><stop offset="0.03" stop-color="#4b5147"/><stop offset="0.14" stop-color="#5f7448"/><stop offset="0.26" stop-color="#709149"/><stop offset="0.38" stop-color="#7da849"/><stop offset="0.52" stop-color="#87b84a"/><stop offset="0.68" stop-color="#8cc14a"/><stop offset="0.89" stop-color="#8ec44a"/></linearGradient><linearGradient id="linear-gradient-2" x1="169.01" y1="137.08" x2="182.38" y2="129.02" gradientUnits="userSpaceOnUse"><stop offset="0" stop-color="#331416"/><stop offset="0.05" stop-color="#4c161a"/><stop offset="0.14" stop-color="#751b1f"/><stop offset="0.24" stop-color="#991e25"/><stop offset="0.34" stop-color="#b62129"/><stop offset="0.45" stop-color="#cd232c"/><stop offset="0.57" stop-color="#dd252e"/><stop offset="0.7" stop-color="#e62630"/><stop offset="0.89" stop-color="#e92630"/></linearGradient><linearGradient id="linear-gradient-3" x1="183.75" y1="129.5" x2="184.66" y2="144.7" gradientUnits="userSpaceOnUse"><stop offset="0" stop-color="#26244b"/><stop offset="0.08" stop-color="#26436d"/><stop offset="0.19" stop-color="#266390"/><stop offset="0.3" stop-color="#277ead"/><stop offset="0.42" stop-color="#2792c4"/><stop offset="0.54" stop-color="#27a1d4"/><stop offset="0.69" stop-color="#27a9dd"/><stop offset="0.89" stop-color="#27ace0"/></linearGradient></defs><title>oney_powered</title><g class="cls-1"><g id="Слой_1" data-name="Слой 1"><path class="cls-2" d="M185.47-97.75" transform="translate(-20.72 -18.54)"/><path class="cls-2" d="M185.47-97.75" transform="translate(-20.72 -18.54)"/><path class="cls-3" d="M272.88,58.65c-0.15-22.05-18-40-39.75-40-22.41,0-40,18-40,41a41.67,41.67,0,0,0,11.56,28.85,38.79,38.79,0,0,0,28.16,12.29C245,100.78,262,94.94,270,78.45a2.59,2.59,0,0,0,.21-0.53H254l-0.1.12c-4.36,5.2-12.61,8.74-20.47,8.74-10,0-21.89-6.58-25.17-21.43h64.28C272.68,63.85,272.88,60.76,272.88,58.65Zm-64.16-6.37a24.79,24.79,0,0,1,48.51,0H208.72ZM148,32.15c-14.49,0-21.84,7.77-21.84,23.15v45.5H111.3V54.24c0.14-8.18,1.59-13.95,4.93-19.36,3.93-6.09,13.31-16.34,31.8-16.34s27.85,10.25,31.77,16.34c3.32,5.42,4.82,11.18,4.91,19.36V100.8H169.84V55.29c0-15.38-7.31-23.15-21.8-23.15M350.21,18.56l-31.37,76.5L311.1,114l-4.27,10.47H291.36l12-29.37L271.29,18.56h16.35l23.47,57.53,23.51-57.53h15.59ZM61.74,86.81A26.68,26.68,0,0,1,35.21,59.74c0-15.19,11.91-27.13,26.54-27.13A26.77,26.77,0,0,1,88.27,59.74,26.73,26.73,0,0,1,61.74,86.81m0-68.25a40.66,40.66,0,0,0-41,41.19,40.67,40.67,0,0,0,41,41.18,40.65,40.65,0,0,0,41-41.18c0-23.12-18-41.19-41-41.19" transform="translate(-20.72 -18.54)"/><path class="cls-4" d="M205.18,144.39c-0.82,1.34-1.47,2.12-3.07,2.12s-1.92-1-2.1-2.12l-1.94-11.79a0.73,0.73,0,0,0-.31-0.58,0.62,0.62,0,0,0-.41.53l-3.07,13.76h-3.42l3.56-15.55c0.53-2.3,2.94-2.32,3.46-2.32,2.1,0,2.46,1,2.66,2.27l2,11.79a0.72,0.72,0,0,0,.34.66,1.33,1.33,0,0,0,.64-0.66l7.38-11.79c1.23-2,2.41-2.27,3.71-2.27,1.68,0,2.76.71,2.39,2.32l-3.56,15.55H210l3.25-13.76c0.11-.48-0.09-0.53-0.19-0.53a1.24,1.24,0,0,0-.57.58Z" transform="translate(-20.72 -18.54)"/><path class="cls-4" d="M223.64,146.3c-1.73,0-4-.23-5.3-2.07s-0.79-4.57-.35-6.51c0.58-2.52,1.41-5.12,3.33-6.87a9.49,9.49,0,0,1,6.44-2.22H237l-0.61,2.65h-7.64c-2,0-3.76.13-5.14,1.64a10.08,10.08,0,0,0-2.1,4.75c-0.61,2.65-.36,3.74-0.13,4.29,0.61,1.39,2.2,1.69,4.35,1.69h8.11l-0.61,2.65h-9.61Z" transform="translate(-20.72 -18.54)"/><g class="cls-5"><path class="cls-6" d="M174.64,145.39a7.15,7.15,0,0,0,6.91.74c0.1-2.38-.2-6.32-3.33-6.76s-5.77,0-8.88-1.71C169.49,141,172,143.7,174.64,145.39Z" transform="translate(-20.72 -18.54)"/><path class="cls-7" d="M173.93,129.92a13.51,13.51,0,0,0-4.22,5.48c2.16,1.43,5.4,3.22,7.56.69,1.94-2.27,2.62-5.05,5.42-6.57A7.23,7.23,0,0,0,173.93,129.92Z" transform="translate(-20.72 -18.54)"/><path class="cls-8" d="M188,137.49c0-2.64-1.72-5.18-3.74-6.79-2.07,1.3-4.77,3.4-3.71,6.22s3.2,4.78,3.08,7.93C185.73,143.18,188,140.3,188,137.49Z" transform="translate(-20.72 -18.54)"/></g><path class="cls-4" d="M27.46,146.31l3.08-14.55a3,3,0,0,1,1-1.91,3.19,3.19,0,0,1,2.07-.66h8.14c0.91,0,2.35,0,3.18,1s0.65,3.06.34,4.5-0.91,3.59-2.49,4.69a5.11,5.11,0,0,1-2.79.83H32l-1.28,6.06H27.46Zm11.2-8.63A3,3,0,0,0,40.9,137,4.65,4.65,0,0,0,42,134.7a3.23,3.23,0,0,0-.11-2.35,2.39,2.39,0,0,0-1.88-.59H34.75a1.1,1.1,0,0,0-.81.22,1.28,1.28,0,0,0-.39.81l-1,4.89h6.14Z" transform="translate(-20.72 -18.54)"/><path class="cls-4" d="M59.06,134.58c1.2,1.39.85,3.84,0.56,5.21-0.58,2.74-1.64,4.38-2.78,5.28-1.67,1.29-4,1.39-5.53,1.39s-3.79-.1-4.94-1.39-0.84-3.86-.56-5.18,1-3.91,2.79-5.31,4-1.37,5.52-1.37S57.92,133.26,59.06,134.58Zm-10.16,8.61a3.24,3.24,0,0,0,2.88,1.08,4.58,4.58,0,0,0,3.31-1.08,5.66,5.66,0,0,0,1.56-3.33c0.2-1,.59-2.42-0.11-3.42a3.3,3.3,0,0,0-2.89-1,4.86,4.86,0,0,0-3.35,1,6.65,6.65,0,0,0-1.53,3.42C48.54,140.93,48.28,142.25,48.89,143.18Z" transform="translate(-20.72 -18.54)"/><path class="cls-4" d="M64.23,142.94a0.4,0.4,0,0,0,.16.39,0.64,0.64,0,0,0,.32-0.37l4.18-8.56a2.19,2.19,0,0,1,2.14-1.2,1.38,1.38,0,0,1,1.63,1.2L73.25,143c0,0.1,0,.37.14,0.37a0.66,0.66,0,0,0,.35-0.39l4.5-9.58H81L75.5,144.7a2.6,2.6,0,0,1-2.6,1.76A1.62,1.62,0,0,1,71,145l-0.53-8.12c0-.1,0-0.42-0.11-0.42a0.73,0.73,0,0,0-.28.42l-4,8.12a2.62,2.62,0,0,1-2.53,1.44,1.58,1.58,0,0,1-1.85-1.76L61,133.35h2.74Z" transform="translate(-20.72 -18.54)"/><path class="cls-4" d="M83.18,146.31c-1.32,0-2.86-.12-3.62-1.64-0.6-1.22-.29-3,0.07-4.72,0.51-2.42,1-4.21,2.69-5.43a8.59,8.59,0,0,1,5.1-1.22,7.12,7.12,0,0,1,4.1.83c1.31,1,1.29,2.57.94,4.21a3.28,3.28,0,0,1-1,2,2.23,2.23,0,0,1-1.5.49H82.42a9.47,9.47,0,0,0-.21,1.78c0.07,1.39,1.24,1.54,2.29,1.54h6.33l-0.47,2.2H83.18Zm5.65-7.73a0.8,0.8,0,0,0,.8-0.76,1.8,1.8,0,0,0-.46-1.74,3.44,3.44,0,0,0-2.32-.59,4,4,0,0,0-2.9.85,3.76,3.76,0,0,0-1.06,2.23h5.94Z" transform="translate(-20.72 -18.54)"/><path class="cls-4" d="M94.11,138.25a5.89,5.89,0,0,1,2.14-3.77,6.83,6.83,0,0,1,4.13-1.12h1.93l-0.47,2.2h-1.2a3.65,3.65,0,0,0-2.64.9,4.8,4.8,0,0,0-1.2,2.54l-1.55,7.31H92.4Z" transform="translate(-20.72 -18.54)"/><path class="cls-4" d="M105.09,146.31c-1.32,0-2.86-.12-3.62-1.64-0.6-1.22-.29-3,0.07-4.72,0.51-2.42,1-4.21,2.69-5.43a8.59,8.59,0,0,1,5.1-1.22,7.12,7.12,0,0,1,4.11.83c1.31,1,1.29,2.57.94,4.21a3.28,3.28,0,0,1-1,2,2.23,2.23,0,0,1-1.5.49h-7.53a9.47,9.47,0,0,0-.21,1.78c0.07,1.39,1.24,1.54,2.29,1.54h6.33l-0.47,2.2h-7.19Zm5.65-7.73a0.8,0.8,0,0,0,.8-0.76,1.8,1.8,0,0,0-.46-1.74,3.44,3.44,0,0,0-2.32-.59,4,4,0,0,0-2.9.85,3.76,3.76,0,0,0-1.06,2.23h5.94Z" transform="translate(-20.72 -18.54)"/><path class="cls-4" d="M129.65,129.2L126.51,144a3.67,3.67,0,0,1-.73,1.61,2.47,2.47,0,0,1-1.93.66h-5.11c-1.3,0-3.11-.32-3.59-2.57a10.12,10.12,0,0,1,.23-4.11,9.29,9.29,0,0,1,1.92-4.35,6.08,6.08,0,0,1,4.76-1.93h3.84l0.88-4.16h2.86Zm-7.49,6.36a3.22,3.22,0,0,0-2.64,1.15,6.71,6.71,0,0,0-1.21,3,7.33,7.33,0,0,0-.27,2.91,2.05,2.05,0,0,0,2.31,1.47h2.3a1.39,1.39,0,0,0,.8-0.2,1.67,1.67,0,0,0,.41-0.91l1.58-7.46h-3.28Z" transform="translate(-20.72 -18.54)"/><path class="cls-4" d="M140.17,129.2l-0.88,4.16h3.79c1.57,0,3.37.24,4.07,2.13a8.32,8.32,0,0,1-.08,4.43,10.07,10.07,0,0,1-1.74,4.28,6,6,0,0,1-4.93,2.13h-4.08a2.41,2.41,0,0,1-1.94-.56,1.81,1.81,0,0,1-.25-1.61l3.17-14.94h2.86ZM137.24,143a1.12,1.12,0,0,0,0,.86,0.9,0.9,0,0,0,.74.22h2.08a3.4,3.4,0,0,0,3-1.32,7.11,7.11,0,0,0,1-2.76,6.82,6.82,0,0,0,.21-3.06,2.11,2.11,0,0,0-2.32-1.42h-3.16Z" transform="translate(-20.72 -18.54)"/><path class="cls-4" d="M151.58,150.5h-2.91l2.88-4.23-3-12.91h3l2,10,6.5-9.9h2.91Z" transform="translate(-20.72 -18.54)"/></g></g></svg>