<svg xmlns="http://www.w3.org/2000/svg" viewBox="0 0 597.34 192.05"><defs><style>.cls-1{fill:#86bc25;}</style></defs><g id="Layer_2" data-name="Layer 2"><g id="Capa_1" data-name="Capa 1"><path class="cls-1" d="M74.41,0C32.68,0,0,32.8,0,74.69s32.68,74.67,74.41,74.67,74.29-32.82,74.29-74.67S116,0,74.41,0m0,123.76c-26.52,0-48.12-21.57-48.12-49.09s21.6-49.16,48.12-49.16c26.35,0,48.05,21.63,48.05,49.16s-21.7,49.09-48,49.09M597.34,0,540.49,138.74l-14,34.33-7.76,19h-28l21.75-53.27L454.3,0h29.62l42.54,104.3L569.09,0ZM230.83,24.7c-26.27,0-39.61,14.08-39.61,41.94v82.51h-27V64.71c.26-14.81,2.88-25.28,8.92-35.11,7.15-11,24.11-29.6,57.67-29.6s50.48,18.57,57.62,29.6c6,9.83,8.7,20.3,8.86,35.11v84.44H270.36V66.64c0-27.86-13.27-41.94-39.53-41.94m110,36.46c3.58-18,20.82-35.62,44-35.62s40.39,17.61,43.93,35.62ZM457.13,72.73c-.24-40-32.53-72.52-72-72.52-40.65,0-72.52,32.64-72.52,74.3a75.71,75.71,0,0,0,21,52.32c13.72,14.35,31.82,22.26,51.06,22.26,22,0,52.77-10.56,67.4-40.49a4.08,4.08,0,0,0,.38-.95H422.91l-.18.2c-7.91,9.48-22.85,15.86-37.07,15.86-18.07,0-39.74-11.9-45.67-38.8H456.55c.26-2.78.58-8.34.58-12.18"/></g></g></svg>